<svg width="290" height="290" viewBox="0 0 290 290" fill="none" xmlns="http://www.w3.org/2000/svg">
<path d="M287.987 161.563C287.494 161.563 287.046 161.881 286.812 162.548C283.837 171.029 279.823 176.076 276.516 176.076C274.618 176.076 273.847 173.959 273.847 170.64C273.847 162.333 278.822 144.715 281.328 136.683C281.618 135.71 281.808 134.84 281.808 134.102C281.808 131.767 280.534 130.623 277.373 130.623C273.966 130.623 270.297 131.957 266.732 138.207C265.501 132.696 261.772 130.29 256.567 130.29C250.551 130.29 244.734 134.161 239.949 140.439C235.165 146.717 229.538 148.777 225.305 147.761C228.351 140.308 229.483 134.741 229.483 130.607C229.483 124.127 226.278 120.212 221.1 120.212C213.227 120.212 208.688 127.725 208.688 135.626C208.688 141.729 211.456 148.011 217.547 151.053C212.444 162.595 204.991 173.034 202.164 173.034C198.511 173.034 197.439 155.154 197.642 142.369C197.773 135.031 198.38 134.654 198.38 132.438C198.38 131.163 197.554 130.294 194.235 130.294C186.492 130.294 184.097 136.849 183.736 144.374C183.621 147.233 183.172 150.072 182.402 152.827C179.17 164.37 172.499 173.126 168.147 173.126C166.13 173.126 165.582 171.109 165.582 168.472C165.582 160.165 170.236 149.782 170.236 140.923C170.236 134.411 167.381 130.294 162.001 130.294C155.663 130.294 147.281 137.834 139.352 151.958C141.96 141.142 143.036 130.671 135.306 130.671C133.63 130.695 131.982 131.124 130.505 131.918C129.488 132.39 128.869 133.438 128.941 134.558C129.679 146.069 119.661 175.564 110.163 175.564C108.436 175.564 107.598 173.693 107.598 170.676C107.598 162.353 112.557 144.779 115.051 136.73C115.369 135.686 115.543 134.789 115.543 134.002C115.543 131.799 114.181 130.667 111.092 130.667C107.697 130.667 104.016 131.957 100.463 138.207C99.2159 132.696 95.4874 130.29 90.2818 130.29C81.7408 130.29 72.1992 139.323 68.0101 151.096C62.3995 166.812 51.087 181.996 35.8634 181.996C22.0453 181.996 14.7511 170.497 14.7511 152.331C14.7511 126.101 34.0051 104.671 48.2877 104.671C55.1173 104.671 58.3812 109.023 58.3812 115.689C58.3812 123.766 53.8705 127.522 53.8705 130.595C53.8705 131.537 54.6527 132.466 56.2052 132.466C62.4114 132.466 69.7175 125.171 69.7175 115.225C69.7175 105.278 61.6411 98 47.3585 98C23.7527 98 0 121.753 0 152.184C0 176.397 11.9478 191.002 32.6114 191.002C46.7034 191.002 59.0165 180.039 65.6555 167.249C66.4099 177.847 71.2224 183.386 78.5603 183.386C85.0841 183.386 90.3652 179.499 94.3954 172.669C95.948 179.816 100.066 183.31 105.414 183.31C111.549 183.31 116.679 179.423 121.567 172.204C121.495 177.875 122.786 183.211 127.702 183.211C130.021 183.211 132.792 182.675 133.284 180.646C138.462 159.244 151.248 141.773 155.163 141.773C156.322 141.773 156.64 142.889 156.64 144.207C156.64 150.02 152.538 161.94 152.538 169.552C152.538 177.775 156.033 183.211 163.255 183.211C171.26 183.211 179.392 173.408 184.816 159.085C186.512 172.47 190.181 183.271 195.922 183.271C202.97 183.271 215.482 168.436 223.066 152.732C226.04 153.109 230.503 153.006 234.795 149.976C232.969 154.602 231.897 159.661 231.897 164.724C231.897 179.296 238.857 183.386 244.845 183.386C251.357 183.386 256.634 179.499 260.68 172.669C262.015 178.832 265.421 183.299 271.687 183.299C281.491 183.299 290 173.28 290 165.057C290 162.881 289.071 161.563 287.987 161.563ZM84.5362 175.31C80.5774 175.31 79.0249 171.323 79.0249 165.379C79.0249 155.055 86.0848 137.814 93.5536 137.814C96.8176 137.814 98.0485 141.658 98.0485 146.355C98.0524 156.834 91.338 175.31 84.5362 175.31ZM220.128 144.497C217.765 141.686 216.907 137.858 216.907 134.447C216.907 130.242 218.444 126.688 220.286 126.688C222.129 126.688 222.693 128.499 222.693 131.024C222.693 135.245 221.184 141.408 220.128 144.497ZM250.821 175.31C246.862 175.31 245.31 170.727 245.31 165.379C245.31 155.416 252.37 137.814 259.898 137.814C263.162 137.814 264.321 141.626 264.321 146.355C264.321 156.834 257.722 175.31 250.821 175.31Z" fill="#4FC5C9"/>
</svg>
