<svg xmlns="http://www.w3.org/2000/svg" width="430" height="430" style="width:100%;height:100%;transform:translate3d(0,0,0);content-visibility:visible" viewBox="0 0 430 430"><defs><clipPath id="a"><path d="M0 0h430v430H0z"/></clipPath><clipPath id="r"><path d="M0 0h430v430H0z"/></clipPath><clipPath id="j"><path d="M0 0h430v430H0z"/></clipPath><clipPath id="k"><path d="M0 0h430v430H0z"/></clipPath><clipPath id="o"><path fill="#fff" d="m1.344-182.5-144.737 19.428L-205.5 3.5l101-4.227 39.458-78.051 66.386-9.949V-182.5"/></clipPath><clipPath id="n"><path fill="#fff" d="m1.344-182.5-144.737 19.428L-205.5 3.5l101-4.227 39.458-78.051 66.386-9.949V-182.5"/></clipPath><clipPath id="m"><path fill="#fff" d="M212-1.5H103l-2.868 3.091-2.925 3.152L13 95.5h-200l-4 90H19l160-76 21.495-72.301 4.698-15.804L212-1.5M-214 94l-.047.003-7.953.497 4 90 3.486-.498.014-.002.5-90"/></clipPath><clipPath id="l"><path fill="#fff" d="M34.344-182.5H5.5v93.773h28.844V-182.5"/></clipPath><clipPath id="b"><path d="M0 0h430v430H0z"/></clipPath><clipPath id="c"><path d="M0 0h430v430H0z"/></clipPath><clipPath id="g"><path fill="#fff"/></clipPath><clipPath id="f"><path fill="#fff"/></clipPath><clipPath id="e"><path fill="#fff"/><path fill="#fff"/></clipPath><clipPath id="d"><path fill="#fff"/></clipPath><mask id="q"><path fill="#fff" d="M-202.5-212.5h430v430h-430z"/><path d="m-138 258.5 51.5 54H39L-65 269l-73-10.5"/></mask><mask id="p"><path fill="#fff" d="m-200.679-214.22 429.984 3.67-3.67 429.984-429.984-3.67z"/><path d="m-238.688 20.963-56.275 32.021 75.767 27.648-19.492-59.669"/></mask><mask id="i"><path fill="#fff" d="M0 0h430v430H0z"/><path/></mask><mask id="h"><path fill="#fff" d="M0 0h430v430H0z"/><path/></mask></defs><g clip-path="url(#a)"><g clip-path="url(#b)" style="display:none"><g clip-path="url(#c)" style="display:none"><g style="display:none"><path class="secondary"/><path class="secondary" style="mix-blend-mode:multiply"/></g><path class="secondary" style="display:none"/><path class="secondary" style="display:none"/><g clip-path="url(#d)" style="display:none"><path class="secondary"/><path class="secondary" style="mix-blend-mode:multiply"/></g><path class="secondary" style="display:none"/><g clip-path="url(#e)" style="display:none"><path class="secondary"/><path class="secondary" style="mix-blend-mode:multiply"/></g><g clip-path="url(#f)" style="display:none"><path class="secondary"/><path class="secondary" style="mix-blend-mode:multiply"/></g><g clip-path="url(#g)" style="display:none"><path class="secondary"/><path class="secondary" style="mix-blend-mode:multiply"/></g><path fill="none" class="primary" style="display:none"/><g mask="url(#h)" style="display:none"><path fill="none" class="primary"/></g><g mask="url(#i)" style="display:none"><path fill="none" class="primary"/></g><path fill="none" class="primary" style="display:none"/><g style="display:none"><path class="secondary"/><path class="secondary" style="mix-blend-mode:multiply"/></g><path fill="none" class="primary" style="display:none"/><path fill="none" class="primary" style="display:none"/><path class="secondary" style="display:none"/><path fill="none" class="primary" style="display:none"/><g style="display:none"><path class="secondary"/><path class="secondary" style="mix-blend-mode:multiply"/></g><g style="display:none"><path class="secondary"/><path class="secondary" style="mix-blend-mode:multiply"/></g><path fill="none" class="primary" style="display:none"/><path class="secondary" style="display:none"/><g style="display:none"><path class="secondary"/><path class="secondary" style="mix-blend-mode:multiply"/></g><path fill="none" class="primary" style="display:none"/><g style="display:none"><path class="secondary"/><path class="secondary" style="mix-blend-mode:multiply"/></g><path fill="none" class="primary" style="display:none"/><path fill="none" class="primary" style="display:none"/><path class="secondary" style="display:none"/><path fill="none" class="primary" style="display:none"/><path fill="none" class="primary" style="display:none"/><path fill="none" class="primary" style="display:none"/><path fill="none" class="primary" style="display:none"/></g></g><g clip-path="url(#j)" style="display:block"><g clip-path="url(#k)" style="display:block"><g style="display:block"><path fill="#4BB3FD" d="M420.616 357.54a3 3 0 0 0 0-4.58l-57.356-48.532c-1.95-1.65-4.938-.264-4.938 2.29v97.064c0 2.554 2.988 3.94 4.938 2.29l57.356-48.532z" class="secondary"/><path fill="none" d="M-30.616-2.29a3 3 0 0 0 0 4.58L26.74 50.822c1.95 1.65 4.938.264 4.938-2.29v-97.064c0-2.554-2.988-3.94-4.938-2.29L-30.616-2.29z" class="secondary" style="mix-blend-mode:multiply" transform="rotate(180 195 177.625)"/></g><path fill="#4BB3FD" d="M-118.5 0c0-64.893 52.607-117.5 117.5-117.5v-50c-92.508 0-167.5 74.992-167.5 167.5S-93.508 167.5-1 167.5h169.5v-50H-1c-64.893 0-117.5-52.607-117.5-117.5z" class="secondary" style="display:block" transform="translate(203.5 212.5)"/><path fill="#4BB3FD" d="M4.5-117.5C69.393-117.5 122-64.893 122 0c0 59.846-44.763 109.275-102.622 116.57a428.23 428.23 0 0 1-8.083.581c-1.677.106-3.27.199-4.582.263-.656.032-1.201.055-1.626.07-.465.016-.63.016-.587.016h-174.375a3 3 0 0 0-3 3v44a3 3 0 0 0 3 3H4.5c4.235 0 15.742-.81 19.708-1.162l.416-.036.415-.051C107.868 156.108 172 85.562 172 0c0-92.508-74.992-167.5-167.5-167.5l-16 23 16 27z" class="secondary" style="display:block" transform="translate(198 212.5)"/><g clip-path="url(#l)" style="display:block" transform="translate(203.5 212.5)"><g fill="#4BB3FD"><path d="M-118.5 0c0-64.893 52.607-117.5 117.5-117.5v-50c-92.508 0-167.5 74.992-167.5 167.5S-93.508 167.5-1 167.5h169.5v-50H-1c-64.893 0-117.5-52.607-117.5-117.5z" class="secondary"/><path fill-opacity=".5" d="M-118.5 0c0-64.893 52.607-117.5 117.5-117.5v-50c-92.508 0-167.5 74.992-167.5 167.5S-93.508 167.5-1 167.5h169.5v-50H-1c-64.893 0-117.5-52.607-117.5-117.5z" class="secondary" style="mix-blend-mode:multiply"/></g></g><path class="secondary" style="display:none"/><g clip-path="url(#m)" style="display:block" transform="translate(198 212.5)"><g fill="#4BB3FD"><path d="M4.5-117.5C69.393-117.5 122-64.893 122 0c0 59.846-44.763 109.275-102.622 116.57a428.23 428.23 0 0 1-8.083.581c-1.677.106-3.27.199-4.582.263-.656.032-1.201.055-1.626.07-.465.016-.63.016-.587.016h-174.375a3 3 0 0 0-3 3v44a3 3 0 0 0 3 3H4.5c4.235 0 15.742-.81 19.708-1.162l.416-.036.415-.051C107.868 156.108 172 85.562 172 0c0-92.508-74.992-167.5-167.5-167.5l-16 23 16 27z" class="secondary"/><path fill-opacity=".5" d="M4.5-117.5C69.393-117.5 122-64.893 122 0c0 59.846-44.763 109.275-102.622 116.57a428.23 428.23 0 0 1-8.083.581c-1.677.106-3.27.199-4.582.263-.656.032-1.201.055-1.626.07-.465.016-.63.016-.587.016h-174.375a3 3 0 0 0-3 3v44a3 3 0 0 0 3 3H4.5c4.235 0 15.742-.81 19.708-1.162l.416-.036.415-.051C107.868 156.108 172 85.562 172 0c0-92.508-74.992-167.5-167.5-167.5l-16 23 16 27z" class="secondary" style="mix-blend-mode:multiply"/></g></g><g clip-path="url(#n)" style="display:block" transform="translate(203.5 212.5)"><g fill="#4BB3FD"><path d="M-118.5 0c0-64.893 52.607-117.5 117.5-117.5v-50c-92.508 0-167.5 74.992-167.5 167.5S-93.508 167.5-1 167.5h169.5v-50H-1c-64.893 0-117.5-52.607-117.5-117.5z" class="secondary"/><path fill-opacity=".5" d="M-118.5 0c0-64.893 52.607-117.5 117.5-117.5v-50c-92.508 0-167.5 74.992-167.5 167.5S-93.508 167.5-1 167.5h169.5v-50H-1c-64.893 0-117.5-52.607-117.5-117.5z" class="secondary" style="mix-blend-mode:multiply"/></g></g><g clip-path="url(#o)" style="display:block" transform="translate(203.5 212.5)"><g fill="#4BB3FD"><path d="M-118.5 0c0-64.893 52.607-117.5 117.5-117.5v-50c-92.508 0-167.5 74.992-167.5 167.5S-93.508 167.5-1 167.5h169.5v-50H-1c-64.893 0-117.5-52.607-117.5-117.5z" class="secondary"/><path fill-opacity=".5" d="M-118.5 0c0-64.893 52.607-117.5 117.5-117.5v-50c-92.508 0-167.5 74.992-167.5 167.5S-93.508 167.5-1 167.5h169.5v-50H-1c-64.893 0-117.5-52.607-117.5-117.5z" class="secondary" style="mix-blend-mode:multiply"/></g></g><path fill="none" stroke="#121331" stroke-linecap="round" stroke-linejoin="round" stroke-width="7" d="m-186.209 24.993-8.969.007a3 3 0 0 1-3-3v-44a3 3 0 0 1 3-3l8.969-.007" class="primary" style="display:block" transform="translate(223.178 355)"/><g mask="url(#p)" style="display:block" transform="rotate(-.489 24999.568 -23620.39)"><path fill="none" stroke="#121331" stroke-linecap="round" stroke-linejoin="round" stroke-width="7" d="m.573 167.857-166.12-1.893m43.968-50.58C-150.058 85.305-167.524 44.692-167.524 0c0-92.705 75.153-167.857 167.858-167.857S168.191-92.705 168.191 0c0 92.625-75.023 167.839-167.618 167.857 0 0 0 0 0 0" class="primary"/></g><g mask="url(#q)" style="display:block" transform="translate(202.5 212.5)"><path fill="none" stroke="#121331" stroke-linecap="round" stroke-linejoin="round" stroke-width="7" d="M-17.95 116.183C-74.21 107.688-117.336 59.13-117.336.5c0-64.617 52.383-117 117-117 64.617 0 117.001 52.383 117.001 117 0 64.562-52.293 116.987-116.834 117h-66.244m0 0h-97.923m168.925 0H-.336c-5.987 0-11.869-.45-17.614-1.317" class="primary"/></g><path fill="none" class="primary" style="display:none"/><g style="display:none"><path class="secondary"/><path class="secondary" style="mix-blend-mode:multiply"/></g><path fill="none" stroke="#121331" stroke-linecap="round" stroke-linejoin="round" stroke-width="7" d="M155.586 117.5h-35.047" class="primary" style="display:block" transform="translate(202.5 212.5)"/><path fill="none" stroke="#121331" stroke-linecap="round" stroke-linejoin="round" stroke-width="7" d="M155.586 117.5H15.039" class="primary" style="display:block" transform="translate(202.5 262.5)"/><path class="secondary" style="display:none"/><path fill="none" class="primary" style="display:none"/><g fill="#4BB3FD" style="display:block"><path d="M360.597 163.8a3 3 0 0 0-4.51-.795l-57.755 48.058c-1.964 1.633-1.118 4.817 1.397 5.26l95.59 16.855c2.515.444 4.399-2.258 3.113-4.465L360.597 163.8z" class="secondary"/><path fill-opacity=".5" d="M-30.616-2.29a3 3 0 0 0 0 4.58L26.74 50.822c1.95 1.65 4.938.264 4.938-2.29v-97.064c0-2.554-2.988-3.94-4.938-2.29L-30.616-2.29z" class="secondary" style="mix-blend-mode:multiply" transform="rotate(100 95.307 244.889)"/></g><g fill="#4BB3FD" style="display:block"><path d="M360.597 163.8a3 3 0 0 0-4.51-.795l-57.755 48.058c-1.964 1.633-1.118 4.817 1.397 5.26l95.59 16.855c2.515.444 4.399-2.258 3.113-4.465L360.597 163.8z" class="secondary"/><path fill-opacity=".5" d="M-30.616-2.29a3 3 0 0 0 0 4.58L26.74 50.822c1.95 1.65 4.938.264 4.938-2.29v-97.064c0-2.554-2.988-3.94-4.938-2.29L-30.616-2.29z" class="secondary" style="mix-blend-mode:multiply" transform="rotate(100 95.307 244.889)"/></g><path fill="none" stroke="#121331" stroke-linecap="round" stroke-linejoin="round" stroke-width="7" d="M31.678-23.109v-25.423c0-2.554-2.988-3.94-4.938-2.29L-30.616-2.29s0 0 0 0a3 3 0 0 0 0 4.58L26.74 50.822c1.95 1.65 4.938.264 4.938-2.29V29.6" class="primary" style="display:block" transform="rotate(100 95.307 244.889)"/><path fill="#4BB3FD" d="M-30.616-2.29a3 3 0 0 0 0 4.58L26.74 50.822c1.95 1.65 4.938.264 4.938-2.29v-97.064c0-2.554-2.988-3.94-4.938-2.29L-30.616-2.29z" class="secondary" style="display:block" transform="translate(188.437 73.094)"/><g fill="#4BB3FD" style="display:block"><path d="M66.061 257.549a3 3 0 0 0 4.51-.796l37.836-64.912c1.286-2.207-.598-4.909-3.113-4.465L9.704 204.23c-2.515.443-3.36 3.627-1.397 5.26l57.753 48.06z" class="secondary"/><path fill-opacity=".5" d="M-30.616-2.29a3 3 0 0 0 0 4.58L26.74 50.822c1.95 1.65 4.938.264 4.938-2.29v-97.064c0-2.554-2.988-3.94-4.938-2.29L-30.616-2.29z" class="secondary" style="mix-blend-mode:multiply" transform="rotate(-100 126.738 87.068)"/></g><path fill="none" stroke="#121331" stroke-linecap="round" stroke-linejoin="round" stroke-width="7" d="M31.678-22.364v-26.168c0-2.554-2.988-3.94-4.938-2.29L-30.616-2.29s0 0 0 0a3 3 0 0 0 0 4.58L26.74 50.822c1.95 1.65 4.938.264 4.938-2.29V30.345" class="primary" style="display:block" transform="rotate(-100 126.738 87.068)"/><g style="display:none"><path class="secondary"/><path class="secondary" style="mix-blend-mode:multiply"/></g><path fill="none" class="primary" style="display:none"/><path fill="none" stroke="#121331" stroke-linecap="round" stroke-linejoin="round" stroke-width="7" d="M31.678-24.813v-23.719c0-2.554-2.988-3.94-4.938-2.29L-30.616-2.29s0 0 0 0a3 3 0 0 0 0 4.58L26.74 50.822c1.95 1.65 4.938.264 4.938-2.29V24.968" class="primary" style="display:block" transform="rotate(180 195 177.625)"/><path class="secondary" style="display:none"/><path fill="none" class="primary" style="display:none"/><path fill="none" stroke="#121331" stroke-linecap="round" stroke-linejoin="round" stroke-width="7" d="M31.678-27.475v-21.057c0-2.554-2.988-3.94-4.938-2.29L-30.616-2.29s0 0 0 0a3 3 0 0 0 0 4.58L26.74 50.822c1.95 1.65 4.938.264 4.938-2.29V24.968" class="primary" style="display:block" transform="translate(188.437 73.094)"/><path fill="none" class="primary" style="display:none"/><path fill="none" class="primary" style="display:none"/></g></g><g clip-path="url(#r)" style="display:none"><g style="display:none"><path class="secondary"/><path fill="none" class="primary"/></g><g style="display:none"><path class="secondary"/><path class="secondary" style="mix-blend-mode:multiply"/></g><path fill="none" class="secondary" style="display:none"/><g fill="none" style="display:none"><path class="secondary"/><path class="secondary" style="mix-blend-mode:multiply"/></g><g fill="none" style="display:none"><path class="secondary"/><path class="secondary"/></g><g fill="none" style="display:none"><path class="secondary"/><path class="secondary" style="mix-blend-mode:multiply"/></g><path fill="none" class="primary" style="display:none"/><path fill="none" class="primary" style="display:none"/><path fill="none" class="primary" style="display:none"/><path fill="none" class="primary" style="display:none"/><g style="display:none"><path class="secondary"/><path fill="none" class="primary"/></g><g style="display:none"><path class="secondary"/><path class="secondary" style="mix-blend-mode:multiply"/><path fill="none" class="primary"/></g><g style="display:none"><path class="secondary"/><path fill="none" class="primary"/></g><g style="display:none"><path class="secondary"/><path class="secondary" style="mix-blend-mode:multiply"/><path fill="none" class="primary"/></g><path fill="none" class="primary" style="display:none"/></g></g></svg>