<svg width="106" height="68" viewBox="0 0 106 68" fill="none" xmlns="http://www.w3.org/2000/svg">
<path d="M20.3972 54.6992V46.3345H28.8888V54.6992H20.3972Z" fill="currentColor"/>
<path d="M59.491 49.685L66.2914 42.9956V37.9815H56.0848L50.9875 42.9956V44.6709L56.0848 49.685H59.491ZM54.3936 54.6992L45.8901 46.3345V41.3204L54.3936 32.9674H66.2914V29.6168L61.1822 24.6027H56.0848L49.2844 31.2921L45.8901 27.9416L54.3936 19.5886H62.8853L71.3887 27.9416V54.6992H66.2914V49.685L61.1822 54.6992H54.3936Z" fill="currentColor"/>
<path d="M88.3902 64.7275L84.9841 63.0638L90.0814 53.0239L79.8867 32.9674V19.5886H84.9841V32.9674L92.636 48.0098L100.288 32.9674V19.5886H105.385V32.9674L89.2299 64.7275H88.3902Z" fill="currentColor"/>
<path d="M13.1114 57.3637C13.1114 59.5153 13.7286 61.0748 14.9664 62.0439C16.2024 63.0166 18.0133 63.5241 20.3972 63.5664V68C16.3858 67.9577 13.2825 67.0378 11.0873 65.244C8.89025 63.4536 7.79352 60.932 7.79352 57.6809V48.0878C7.79352 45.8939 7.12701 44.3274 5.79753 43.3864C4.46629 42.4472 2.53378 41.9767 0 41.9767V37.515C2.74536 37.4727 4.72901 36.9687 5.9527 35.9995C7.17991 35.0268 7.79352 33.529 7.79352 31.5025V21.8108C7.79352 18.5403 8.93257 15.9992 11.2142 14.1842C13.4941 12.371 16.5551 11.4635 20.3972 11.4635V15.8618C15.5394 15.9887 13.1114 18.0891 13.1114 22.1632V31.5025C13.1114 36.0383 10.7575 38.7185 6.05144 39.5449V39.9185C10.7575 40.7467 13.1114 43.4269 13.1114 47.9609V57.3637Z" fill="currentColor"/>
</svg>
