<svg width="25" height="68" viewBox="0 0 25 68" fill="none" xmlns="http://www.w3.org/2000/svg">
<path fill-rule="evenodd" clip-rule="evenodd" d="M17.5756 39.4295C12.8612 38.603 10.5058 35.9228 10.5058 31.3871V22.0477C10.5058 17.9737 8.10447 15.8732 3.30182 15.7463V11.348C7.19515 11.348 10.2551 12.2679 12.4834 14.104C14.2031 15.5161 15.2603 17.3426 15.6549 19.5834H12.6176V22.9667H15.8311V31.3871C15.8311 33.4311 16.4544 34.936 17.7027 35.8981C18.9493 36.8567 20.948 37.3572 23.699 37.3995V41.8612C21.1175 41.8612 19.1612 42.3317 17.8298 43.2709C16.4968 44.2119 15.8311 45.7785 15.8311 47.9723V57.5654C15.8311 60.7936 14.747 63.31 12.5822 65.1144C10.4158 66.9188 7.32228 67.8422 3.30182 67.8845V63.4509C5.65018 63.4086 7.43705 62.9012 8.66243 61.9285C9.89134 60.9593 10.5058 59.3998 10.5058 57.2482V47.8454C10.5058 45.4401 11.0867 43.6057 12.2503 42.3405C13.4121 41.0718 15.1884 40.226 17.5756 39.803V39.4295ZM8.54946 13.4934H10.9225V15.8617H8.54946V13.4934Z" fill="#FF6900"/>
<mask id="mask0_7_16" style="mask-type:luminance" maskUnits="userSpaceOnUse" x="8" y="4" width="6" height="5">
<path d="M8.87393 4.75775H13.2807V8.94336H8.87393V4.75775Z" fill="currentColor"/>
</mask>
<g mask="url(#mask0_7_16)">
<path d="M8.87393 4.75775H13.2906V8.94336H8.87393V4.75775Z" fill="#FF6900"/>
</g>
<mask id="mask1_7_16" style="mask-type:luminance" maskUnits="userSpaceOnUse" x="17" y="10" width="4" height="4">
<path d="M17.1367 10.5768H20.2844V13.5665H17.1367V10.5768Z" fill="currentColor"/>
</mask>
<g mask="url(#mask1_7_16)">
<path d="M17.1367 10.5768H20.2844V13.5697H17.1367V10.5768Z" fill="#FF6900"/>
</g>
<mask id="mask2_7_16" style="mask-type:luminance" maskUnits="userSpaceOnUse" x="16" y="6" width="2" height="3">
<path d="M16.0514 6.78979H17.94V8.58363H16.0514V6.78979Z" fill="currentColor"/>
</mask>
<g mask="url(#mask2_7_16)">
<path d="M16.0514 6.78979H17.94V8.58507H16.0514V6.78979Z" fill="#FF6900"/>
</g>
<mask id="mask3_7_16" style="mask-type:luminance" maskUnits="userSpaceOnUse" x="20" y="2" width="3" height="3">
<path d="M20.6484 2.64935H22.2222V4.14421H20.6484V2.64935Z" fill="currentColor"/>
</mask>
<g mask="url(#mask3_7_16)">
<path d="M20.6484 2.64935H22.2222V4.14421H20.6484V2.64935Z" fill="#FF6900"/>
</g>
</svg>
