<svg width="153" height="30" viewBox="0 0 153 30" fill="none" xmlns="http://www.w3.org/2000/svg">
<path d="M12.5 21.6406C12.5 20.7656 12.7969 20.0312 13.3906 19.4375C14.0156 18.8125 14.7656 18.5 15.6406 18.5H22.8125L21.5938 15.0312C21.0938 13.75 20.5938 12.5469 20.0938 11.4219C19.625 10.2656 19.0781 9.21875 18.4531 8.28125C17.8906 7.34375 17.25 6.84375 16.5312 6.78125C15.7812 6.84375 15.1094 7.34375 14.5156 8.28125C13.9219 9.21875 13.375 10.2656 12.875 11.4219C12.4062 12.5469 11.9219 13.75 11.4219 15.0312L6.96875 27.2188C6.65625 27.875 6.25 28.4219 5.75 28.8594C5.28125 29.2656 4.5625 29.4688 3.59375 29.4688C2.6875 29.4688 1.9375 29.1562 1.34375 28.5312C0.78125 27.9062 0.53125 27.1562 0.59375 26.2812C0.625 25.875 0.71875 25.5 0.875 25.1562L6.03125 11.8438C7.46875 8.34375 8.90625 5.51562 10.3438 3.35938C11.75 1.23438 13.8125 0.15625 16.5312 0.125C19.2188 0.15625 21.2656 1.23438 22.6719 3.35938C24.1094 5.45312 25.5469 8.28125 26.9844 11.8438L32.1406 25.1562C32.2969 25.5 32.3906 25.875 32.4219 26.2812C32.4844 27.1562 32.2188 27.9062 31.625 28.5312C31.0625 29.1562 30.3281 29.4688 29.4219 29.4688C28.3906 29.4688 27.625 29.2656 27.125 28.8594C26.6562 28.4219 26.2656 27.875 25.9531 27.2188L25.0625 24.7812H15.6406C14.7656 24.7812 14.0312 24.4688 13.4375 23.8438C12.8125 23.25 12.5 22.5156 12.5 21.6406ZM47.0469 6.92188C48.1406 6.92188 49.2031 7.10938 50.2344 7.48438C51.2969 7.85938 52.3125 8.40625 53.2812 9.125C53.4375 9.28125 53.6094 9.4375 53.7969 9.59375C53.9531 9.4375 54.125 9.28125 54.3125 9.125C55.2812 8.40625 56.2812 7.85938 57.3125 7.48438C58.375 7.10938 59.4375 6.92188 60.5 6.92188C61.5938 6.92188 62.6562 7.10938 63.6875 7.48438C64.75 7.85938 65.75 8.42188 66.6875 9.17188C67.6562 9.89062 68.5 10.8594 69.2188 12.0781C69.9688 13.2969 70.3438 14.75 70.3438 16.4375V26.4219C70.1562 28.2969 69.125 29.3125 67.25 29.4688C66.375 29.4688 65.6094 29.1875 64.9531 28.625C64.3281 28.0312 64.0156 27.2969 64.0156 26.4219V16.8125C64.0156 16.0625 63.875 15.4375 63.5938 14.9375C63.3125 14.4062 63 14 62.6562 13.7188C62.3125 13.4062 61.9531 13.1875 61.5781 13.0625C61.2031 12.9062 60.8281 12.8281 60.4531 12.8281C60.0781 12.8281 59.7031 12.9062 59.3281 13.0625C58.9844 13.1875 58.6406 13.4062 58.2969 13.7188C57.9531 14 57.6406 14.4062 57.3594 14.9375C57.0781 15.4375 56.9219 16.0625 56.8906 16.8125V26.4219C56.7031 28.2969 55.6719 29.3125 53.7969 29.4688C52.9219 29.4688 52.1562 29.1875 51.5 28.625C50.875 28.0312 50.5625 27.2969 50.5625 26.4219V16.8125C50.5625 16.0625 50.4219 15.4375 50.1406 14.9375C49.8594 14.4062 49.5469 14 49.2031 13.7188C48.8594 13.4062 48.5 13.1875 48.125 13.0625C47.75 12.9062 47.375 12.8281 47 12.8281C46.625 12.8281 46.25 12.9062 45.875 13.0625C45.5312 13.1875 45.1875 13.4062 44.8438 13.7188C44.5 14 44.1875 14.4062 43.9062 14.9375C43.625 15.4375 43.4688 16.0625 43.4375 16.8125V26.4219C43.2812 28.2969 42.2656 29.3125 40.3906 29.4688C39.5156 29.4688 38.75 29.1875 38.0938 28.625C37.4688 28.0312 37.1562 27.2969 37.1562 26.4219V16.4375C37.2188 14.75 37.6094 13.2969 38.3281 12.0781C39.0469 10.8594 39.8906 9.89062 40.8594 9.17188C41.8281 8.42188 42.8281 7.85938 43.8594 7.48438C44.9219 7.10938 45.9844 6.92188 47.0469 6.92188ZM102.359 26.4219V15.125C102.359 14.3438 101.953 13.9375 101.141 13.9062H84.7344C84.1406 13.9375 83.625 14.2031 83.1875 14.7031C82.75 15.1719 82.4219 15.7344 82.2031 16.3906C82.0156 17.0156 81.9219 17.6562 81.9219 18.3125C81.9219 18.9375 82.0156 19.5781 82.2031 20.2344C82.4219 20.8594 82.75 21.4219 83.1875 21.9219C83.625 22.3906 84.1406 22.625 84.7344 22.625H96.7344C97.6094 22.625 98.3438 22.9375 98.9375 23.5625C99.5625 24.1562 99.875 24.8906 99.875 25.7656C99.875 26.6406 99.5625 27.375 98.9375 27.9688C98.3438 28.5938 97.6094 28.9062 96.7344 28.9062H84.9219C82.7344 28.875 80.9219 28.2656 79.4844 27.0781C78.0781 25.8594 77.0625 24.5 76.4375 23C75.8438 21.4688 75.5469 19.8906 75.5469 18.2656C75.5469 16.7031 75.8594 15.1719 76.4844 13.6719C77.1094 12.1406 78.125 10.7812 79.5312 9.59375C80.9375 8.375 83.0156 7.71875 85.7656 7.625H105.453C106.328 7.625 107.078 7.92188 107.703 8.51562C108.328 9.07812 108.656 9.79688 108.688 10.6719V26.4219C108.688 27.2969 108.359 28.0312 107.703 28.625C107.078 29.1875 106.328 29.4688 105.453 29.4688C103.578 29.3125 102.547 28.2969 102.359 26.4219ZM117.969 0.5C118.812 0.53125 119.531 0.84375 120.125 1.4375C120.719 2 121.031 2.70312 121.062 3.54688V26.5156C120.875 28.3906 119.844 29.4062 117.969 29.5625C117.094 29.5625 116.328 29.2812 115.672 28.7188C115.047 28.125 114.734 27.3906 114.734 26.5156V3.54688C114.766 2.67188 115.094 1.95312 115.719 1.39062C116.344 0.796875 117.094 0.5 117.969 0.5Z" fill="black"/>
<path d="M147.844 29.6562C146.594 29.6562 145.547 29.2188 144.703 28.3438C143.891 27.4688 143.484 26.375 143.484 25.0625C143.484 23.75 143.891 22.6562 144.703 21.7812C145.547 20.9062 146.594 20.4688 147.844 20.4688C149.094 20.4688 150.141 20.9062 150.984 21.7812C151.828 22.6562 152.25 23.75 152.25 25.0625C152.25 26.375 151.828 27.4688 150.984 28.3438C150.141 29.2188 149.094 29.6562 147.844 29.6562Z" fill="#FF6900"/>
</svg>
