<svg width="500" height="500" viewBox="0 0 500 500" fill="none" xmlns="http://www.w3.org/2000/svg">
<g clip-path="url(#clip0_12_2)">
<mask id="mask0_12_2" style="mask-type:luminance" maskUnits="userSpaceOnUse" x="0" y="57" width="500" height="385">
<path d="M0 57.8125H500V441.813H0V57.8125Z" fill="currentColor"/>
</mask>
<g mask="url(#mask0_12_2)">
<path d="M300.224 58.849C300.016 59.0573 300.016 59.4688 299.807 59.6771C299.599 59.4688 299.599 59.4688 299.391 59.2604C299.188 59.0573 298.771 59.0573 297.943 59.0573C297.323 59.2604 296.703 59.4688 296.286 60.0885C296.078 60.5052 295.87 60.7135 295.667 61.125C295.667 60.9167 295.458 60.7135 295.458 60.7135C295.25 60.5052 294.422 60.2969 292.766 60.2969C291.109 60.2969 290.073 60.7135 289.245 61.3333C288.625 61.9531 288 62.3698 287.38 62.1615C286.76 62.1615 286.141 62.3698 285.104 63.1979C284.068 64.026 283.448 64.2344 282.823 64.026C282.203 64.026 281.792 64.2344 281.167 64.6458C280.547 65.0625 279.927 65.474 279.51 65.474C279.099 65.474 278.682 65.6823 278.474 66.099C278.271 66.5104 278.063 66.7188 277.646 66.5104C277.443 66.3021 277.026 66.5104 276.818 66.7188C276.615 67.1302 276.198 67.1302 275.578 67.1302C274.953 67.1302 274.125 67.7552 273.094 68.7865C272.057 70.0313 271.229 70.4479 270.813 70.4479C270.401 70.2396 269.573 70.8594 268.12 72.1042C266.672 73.3438 265.844 74.1719 265.635 74.7969C265.224 75.4167 264.599 76.0365 263.563 76.6563C262.531 77.2813 260.875 78.7292 258.802 80.8021C256.729 83.0781 255.073 84.9427 253.833 86.8073C252.589 88.6719 251.344 90.3281 249.896 91.5677C248.448 93.0208 247.823 93.849 247.62 94.0573C247.411 94.2604 247.62 94.6771 247.823 94.8854C248.24 95.2969 247.62 96.125 246.375 97.5729C245.135 99.2344 244.51 100.063 244.719 100.474C244.927 100.891 244.51 101.51 243.891 102.339C243.271 103.167 242.854 104.203 242.234 105.651C241.818 107.104 241.406 107.932 240.99 108.135C240.786 108.344 240.578 108.344 240.37 108.552C240.578 108.76 240.578 108.964 240.786 109.172C240.99 109.589 240.99 110 240.37 110.625C239.75 111.245 239.333 111.656 239.333 112.073C239.125 112.484 239.125 113.313 238.922 114.557C238.714 115.802 238.714 117.25 238.922 118.495C239.125 119.943 239.125 121.182 238.714 122.016C238.297 122.844 238.094 123.875 238.094 124.703C238.094 125.531 238.297 126.156 238.505 126.365C238.922 126.776 238.714 126.984 238.297 127.604C237.885 128.224 237.677 129.052 237.469 130.505C237.266 131.953 237.469 132.99 237.885 133.609C238.094 134.234 238.505 134.438 238.714 134.438C238.922 134.438 239.125 136.094 239.125 139.203C239.125 142.307 239.542 144.172 239.75 144.589C239.953 145 240.578 145.417 241.198 145.417C241.406 145.417 241.818 145.417 242.026 145.417C241.818 146.245 241.818 147.073 241.818 147.693C241.615 149.349 241.615 150.177 242.026 150.385C242.234 150.594 242.646 151.005 242.646 152.042C242.646 152.87 242.854 153.286 243.271 153.49C243.682 153.698 243.891 154.323 244.307 155.563C244.51 156.807 245.135 157.844 245.964 158.464C246.792 159.083 247.411 160.12 247.823 161.359C248.24 162.604 248.859 163.432 249.484 164.052C250.313 164.677 250.724 165.297 250.932 166.125C251.141 166.953 251.76 167.573 252.589 167.99C253.625 168.401 254.036 169.026 254.245 170.063C254.453 171.094 255.281 172.13 256.938 173.375C258.594 174.615 259.63 175.651 260.25 176.688C260.875 177.724 261.495 178.135 261.906 178.344C262.323 178.552 262.734 178.76 263.151 179.38C263.563 180 263.979 180.208 264.188 180.208C264.599 180.208 265.224 180.828 266.464 181.865C267.708 182.901 268.948 183.729 269.984 184.141C271.021 184.557 271.641 184.969 271.641 185.385C271.641 185.802 272.057 186.005 272.469 186.005C272.885 186.005 273.297 186.214 273.505 186.63C273.714 187.042 274.333 187.25 275.161 187.25C275.99 187.25 276.818 187.458 277.854 187.87C278.891 188.286 279.51 188.698 279.719 189.526C280.13 190.151 280.755 190.354 281.995 190.354C283.24 190.354 283.859 190.563 284.276 190.979C284.484 191.599 285.313 191.807 286.552 191.807C287.797 191.807 288.417 192.01 288.833 192.635C289.036 193.255 289.865 193.255 291.521 193.047C293.182 192.839 294.01 192.839 294.422 192.839C294.839 192.839 295.25 193.255 295.667 193.672C296.078 194.292 296.703 194.292 297.323 194.083C297.943 193.875 298.563 193.875 298.771 194.292C298.979 194.703 299.807 194.703 301.464 194.703C303.12 194.5 303.74 194.703 303.948 194.911C304.156 195.12 304.573 195.12 305.604 195.12C306.641 195.12 307.469 194.911 308.505 194.292C309.333 193.667 309.953 193.464 310.37 194.083C310.781 194.5 311.198 194.703 311.818 194.292C312.443 193.875 312.646 194.083 312.854 194.292C313.063 194.5 313.682 194.5 314.51 194.5C315.339 194.292 315.958 194.083 316.583 193.667C317.203 193.255 317.62 193.047 318.24 193.255C318.859 193.464 319.276 193.464 319.896 193.047C320.516 192.839 320.932 192.839 321.344 193.047C321.552 193.255 321.552 193.464 321.76 193.464C321.969 193.255 321.969 193.047 322.172 193.047C322.589 192.839 323 192.427 323.625 192.427C324.245 192.427 324.865 191.807 325.281 191.182C325.693 190.354 326.318 189.943 326.938 189.943C327.766 189.734 328.182 189.734 328.182 189.526C328.182 189.318 328.385 189.318 328.385 189.115C328.802 189.318 329.214 189.526 329.422 189.734C330.25 190.151 330.667 190.354 331.078 189.943C331.495 189.734 331.698 189.318 332.115 188.286C332.323 187.87 332.323 187.458 332.531 187.042C332.943 187.25 333.151 187.25 333.359 187.458C333.979 187.87 334.807 187.661 336.052 187.042C337.292 186.422 337.911 185.802 338.328 184.969C338.74 184.349 339.568 183.938 340.604 183.938C341.641 183.938 342.469 183.109 343.297 181.656C344.125 180.208 344.75 179.172 345.578 179.172C346.198 178.964 346.818 178.76 347.026 178.344C347.234 177.932 347.646 177.724 348.474 177.724C349.302 177.724 349.719 177.307 350.13 176.479C350.547 175.651 350.958 174.823 351.786 173.995C352.62 173.167 353.448 172.13 354.068 170.682C354.688 169.229 355.307 168.401 355.932 168.198C356.552 167.99 357.38 166.333 358.828 163.224C360.073 160.12 361.521 157.635 362.557 155.563C363.802 153.698 364.63 151.63 365.25 149.349C365.87 147.281 366.286 146.036 366.698 145.625C366.906 145.208 367.323 144.589 367.323 143.344C367.526 142.104 367.734 141.271 368.359 140.859C368.979 140.443 369.599 139.203 370.427 137.13C371.255 135.063 371.672 132.573 371.875 129.677C372.083 126.776 372.292 124.5 372.708 123.047C373.12 121.599 373.12 118.495 372.5 113.938C371.875 109.38 371.464 106.896 371.047 106.276C370.635 105.651 370.016 104.203 369.188 101.302C368.359 98.6094 366.906 95.2969 364.63 91.776C362.349 88.2552 361.109 86.1875 360.693 85.9792C360.281 85.7708 359.656 84.9427 358.625 83.4948C357.797 82.0417 356.969 81.0052 356.344 80.3854C355.724 79.7656 355.307 79.5573 354.896 79.5573C354.688 79.5573 354.276 79.349 354.068 78.7292C353.859 78.1094 353.448 77.6927 352.411 77.2813C351.583 76.8646 351.167 76.4531 350.755 75.8281C350.547 75.2083 350.13 74.7969 349.099 74.1719C348.271 73.5521 347.646 73.3438 347.234 73.3438C346.818 73.3438 346.406 73.1354 346.406 72.724C346.198 72.5156 346.198 72.3073 345.99 72.1042C345.99 72.1042 345.781 72.1042 345.781 72.3073C345.578 72.5156 345.161 72.1042 344.75 71.6875C344.333 71.276 343.922 70.651 343.714 70.0313C343.714 69.4115 343.089 68.9948 341.849 68.375C340.604 67.7552 339.984 67.1302 339.776 66.7188C339.568 66.3021 339.156 66.099 338.536 65.8906C337.911 65.6823 337.5 65.474 337.083 65.0625C336.672 64.6458 336.464 64.4375 336.255 64.6458C336.052 64.6458 335.219 64.4375 333.771 63.6094C332.323 62.9896 331.286 62.5781 330.458 62.3698C329.63 62.3698 329.214 61.9531 328.802 61.75C328.385 61.3333 327.766 61.125 326.521 61.125C325.281 61.125 324.245 60.7135 323 60.0885C321.76 59.4688 320.516 59.0573 319.276 58.849C318.031 58.6406 316.583 58.6406 314.51 59.0573C312.646 59.4688 311.198 59.2604 310.161 58.849C309.125 58.4323 307.885 58.2292 306.229 58.0208C304.573 57.8125 303.74 58.0208 303.536 58.2292C303.328 58.4323 302.911 58.4323 301.88 58.2292C301.052 58.2292 300.427 58.4323 300.224 58.849ZM162.5 74.5885C161.26 74.7969 160.635 75.2083 160.016 75.625C159.396 76.0365 158.979 76.2448 158.359 76.2448C157.74 76.2448 157.115 76.4531 156.083 76.8646C155.047 77.2813 154.422 77.901 154.219 78.5208C154.01 79.1458 153.391 79.974 152.146 80.8021C150.901 81.8385 150.49 82.25 150.49 82.4583C150.49 82.6667 150.281 83.0781 149.87 83.4948C149.453 83.9063 149.245 84.3229 149.245 84.526C149.245 84.7344 149.453 84.7344 149.453 84.9427C149.245 85.151 148.833 85.151 148.625 85.3542C148.005 85.5625 147.589 85.7708 147.38 86.1875C146.969 86.599 146.969 86.8073 146.969 87.0156C146.969 87.2187 146.76 87.6354 146.141 88.0469C145.521 88.6719 145.104 89.0833 145.104 89.9115C144.896 90.5365 144.693 91.1563 144.276 91.5677C143.859 91.9844 143.24 92.8125 142.828 93.849C142.411 94.8854 141.792 95.7135 140.755 96.5417C139.719 97.3698 139.307 98.1979 139.099 99.026C138.891 99.8542 138.479 100.474 137.854 100.682C137.443 100.891 137.234 100.891 137.026 101.094C137.026 101.094 137.026 101.302 137.234 101.51C137.443 101.719 137.234 102.339 136.615 103.375C135.995 104.411 135.578 104.823 134.958 104.615C134.333 104.411 133.922 103.995 133.505 103.167C133.094 102.547 132.885 102.13 132.474 102.13C132.057 102.13 131.849 101.719 131.641 101.302C131.229 100.682 130.609 100.063 129.365 99.2344C128.328 98.4063 127.5 97.7813 126.88 96.9531C126.26 96.125 125.844 95.7135 125.432 95.7135C125.016 95.5052 124.807 95.2969 124.604 94.6771C124.396 94.0573 123.979 93.849 123.568 93.849C123.151 93.6406 122.115 92.8125 120.458 91.1563C118.802 89.5 117.563 88.4635 116.938 88.2552C116.318 87.8438 115.698 87.4271 115.49 87.0156C115.281 86.3906 114.87 86.1875 114.453 86.1875C114.042 86.1875 113.214 85.5625 112.385 84.526C111.552 83.6979 110.932 83.0781 110.313 82.8698C109.693 82.6667 109.484 82.4583 109.068 82.0417C108.656 81.6302 108.24 81.2135 107.62 81.0052C107 81.0052 106.375 80.3854 105.755 79.5573C105.135 78.7292 104.307 78.1094 103.479 77.901C102.443 77.4844 101.615 77.0729 100.786 76.2448C99.9584 75.4167 99.3334 75.2083 98.7136 75.4167C98.5052 75.4167 98.0938 75.4167 97.8854 75.625C97.8854 75.625 97.8854 75.4167 98.0938 75.2083L98.3021 75C97.8854 75 97.474 75 97.2656 75.2083C96.6459 75.4167 96.0209 75.4167 95.6094 75.625C95.1927 75.8281 95.1927 76.0365 95.1927 76.4531C95.1927 76.8646 94.9844 77.0729 94.5729 77.0729C94.1563 77.0729 93.9531 77.6927 93.7448 78.5208C93.5365 79.349 93.9531 80.5938 94.3646 82.4583C94.9844 84.3229 95.1927 85.151 95.4011 85.151C95.6094 85.151 96.0209 85.9792 96.6459 87.6354C97.2656 89.2917 97.6771 90.1198 97.8854 90.1198C97.8854 90.1198 98.0938 90.1198 98.3021 90.1198C98.3021 90.3281 98.3021 90.5365 98.3021 90.5365C98.3021 90.9479 98.5052 91.1563 98.7136 91.1563C99.1302 91.1563 99.3334 91.776 99.75 92.3958C100.167 93.0208 100.37 94.0573 100.578 94.8854C100.786 95.9167 101.198 96.5417 101.823 96.7448C102.443 97.1615 102.651 97.3698 102.651 97.7813C102.651 98.1979 102.651 98.6094 103.063 99.026C103.479 99.4375 103.682 99.6458 103.891 99.6458C104.099 99.6458 104.307 99.6458 104.307 99.6458C104.307 100.063 104.307 100.266 104.307 100.682C104.307 101.302 104.516 101.719 104.927 101.922C105.344 101.922 105.547 102.339 105.547 102.755C105.547 103.167 105.755 103.375 106.172 103.583C106.583 103.583 106.792 104.203 107 105.031C107.203 105.859 107.411 106.276 107.828 106.479C108.24 106.688 108.448 107.104 108.656 107.724C108.865 108.344 109.068 108.964 109.693 109.38C110.313 109.792 110.724 110.417 110.724 111.245C110.724 112.073 111.141 112.693 111.552 112.901C111.969 113.109 112.589 113.313 113.005 113.729C113.417 114.146 113.625 114.557 113.417 114.766C113.417 114.974 113.417 115.177 113.214 115.177C113.417 115.177 113.625 115.385 113.625 115.385C114.042 115.594 114.042 116.005 114.042 116.63C114.042 117.25 114.453 117.661 115.073 117.87C115.698 117.87 115.901 118.286 115.901 118.495C115.901 118.698 115.901 118.906 115.901 118.906C116.109 118.906 116.109 118.906 116.318 118.906C116.526 118.906 116.734 119.526 116.938 120.563C117.146 121.807 117.766 122.635 118.802 123.255C119.839 123.875 120.458 124.703 120.667 125.531C120.875 126.365 121.083 126.984 121.495 127.193C121.703 127.193 121.911 127.193 121.911 127.396C121.703 128.021 121.286 128.849 121.083 129.677C120.458 131.125 119.839 132.573 118.802 134.234C117.766 135.891 117.146 136.922 117.146 137.75C117.146 138.583 116.734 139.203 116.109 139.823C115.49 140.443 115.073 141.271 114.87 142.104C114.87 142.932 114.453 143.552 114.042 143.964C113.625 144.38 113.417 144.792 113.417 145.62C113.417 146.245 113.214 146.656 113.005 146.865C112.797 147.073 112.385 147.693 112.177 148.938C111.969 150.177 111.552 151.214 110.521 152.042C109.693 153.078 109.068 154.323 108.448 155.771C107.828 157.219 107.411 158.464 106.792 159.292C106.172 160.12 105.964 160.948 105.964 161.568C105.964 162.193 105.547 163.224 104.719 164.88C103.682 166.542 103.271 167.781 103.479 168.401C103.682 169.026 103.271 169.854 102.651 170.682C102.026 171.51 101.615 172.339 101.823 172.958C101.823 173.578 101.615 174.411 100.995 175.24C100.37 176.068 99.9584 177.099 99.9584 177.927C99.9584 178.76 99.75 179.38 99.3334 180C98.9219 180.62 98.7136 181.036 98.9219 181.656C99.1302 182.281 98.9219 182.693 98.5052 183.313C98.0938 183.938 97.8854 184.349 98.0938 184.969C98.3021 185.594 98.0938 186.005 97.6771 186.422C97.2656 186.63 97.2656 187.661 97.474 189.526C97.6771 191.182 98.5052 192.219 100.167 192.219C101.823 192.219 103.063 192.219 103.682 191.807C104.307 191.391 105.135 190.563 105.964 189.526C106.792 188.286 107.62 186.63 108.656 184.349C109.693 182.073 110.521 180.62 110.932 180.417C111.349 180.208 112.385 178.552 113.625 176.271C114.87 173.995 115.901 172.339 116.318 171.719C116.938 171.094 117.563 170.266 117.974 169.229C118.391 168.198 118.802 167.573 119.219 167.37C119.63 167.161 120.667 165.708 122.323 163.432C123.979 160.948 125.016 159.083 125.635 157.839C126.26 156.599 127.089 155.354 128.328 153.906C129.573 152.458 130.813 151.005 131.849 149.141C132.885 147.281 133.922 146.453 134.542 146.453C135.161 146.656 135.578 147.073 135.786 148.109C135.995 149.141 136.406 149.974 137.443 150.385C138.479 150.802 138.682 151.214 138.891 152.042C138.891 152.661 139.307 153.078 139.719 153.286C140.135 153.49 140.547 154.115 140.964 155.151C141.375 156.182 141.792 156.807 142.203 157.01C142.62 157.219 142.828 157.635 143.031 158.255C143.24 158.875 143.448 159.5 143.859 159.911C144.276 160.328 144.693 160.74 144.896 161.359C144.896 161.984 145.313 162.193 145.521 162.193C145.932 162.396 146.349 163.021 146.76 164.052C147.38 165.297 147.797 165.917 148.417 166.333C149.042 166.745 149.245 167.161 149.245 167.781C149.245 168.401 149.661 168.609 150.073 168.818C150.698 169.026 150.901 169.438 151.109 169.854C151.109 170.474 151.526 170.682 151.938 170.682C152.354 170.891 152.563 171.302 152.766 171.922C152.974 172.547 153.802 173.578 155.047 174.411C156.286 175.24 157.115 176.271 157.323 177.099C157.531 177.927 157.943 178.76 158.568 179.38C159.188 180 159.807 180.417 160.635 180.828C161.26 181.036 161.672 181.448 161.672 181.656C161.672 182.073 161.88 182.281 162.292 182.281C162.708 182.281 163.12 182.693 163.328 183.313C163.745 183.938 163.953 184.349 164.573 184.349C165.193 184.349 165.401 184.557 165.401 185.177C165.609 185.797 165.813 186.005 166.021 186.214C166.229 186.422 167.057 186.422 168.302 186.214C169.542 186.005 170.37 186.214 170.786 186.63C171.198 187.25 171.615 187.458 171.818 187.458C172.026 187.458 172.443 187.25 172.854 186.833C173.271 186.422 173.682 186.214 174.099 186.214C174.51 186.214 175.135 185.594 176.172 184.349C177.203 183.109 177.828 181.865 178.448 180.62C179.068 179.38 179.484 178.135 179.484 176.688C179.688 175.24 180.104 174.411 180.932 173.995C181.76 173.578 182.38 172.958 182.589 172.339C183.005 171.719 183.005 170.682 183.005 169.646C183.005 168.609 182.797 167.37 182.177 166.125C181.552 164.88 181.349 164.052 181.349 163.432C181.349 162.813 179.896 160.328 177.203 155.563C174.51 150.802 172.651 148.313 172.026 147.693C171.406 147.073 170.99 146.656 170.99 146.245C170.99 145.828 170.578 145.62 170.161 145.417C169.542 145 169.13 144.589 168.922 143.964C168.714 143.344 167.885 142.099 166.229 140.031C164.573 137.958 163.745 137.13 163.328 137.13C163.12 137.13 162.917 137.13 162.708 137.13C162.708 137.13 162.708 136.922 162.917 136.922C163.12 136.719 162.917 136.302 162.5 135.682C162.089 135.063 161.672 134.646 161.26 134.646C160.844 134.438 160.224 133.818 159.599 132.781C158.979 131.542 158.151 130.917 157.531 130.505C156.911 130.089 156.495 129.88 156.495 129.26C156.495 128.641 156.083 128.224 155.458 127.604C154.839 126.984 154.422 126.568 154.01 126.568C153.594 126.568 153.182 125.948 152.354 124.911C151.526 123.875 151.318 123.255 151.318 122.844C151.526 122.427 151.729 122.01 152.354 121.599C152.974 121.182 153.182 120.563 153.391 119.943C153.594 119.323 154.63 118.078 156.286 116.214C157.943 114.557 158.979 113.521 158.979 113.109C158.979 112.901 159.807 111.656 161.26 109.792C162.917 107.724 166.021 104.411 170.99 99.4375C175.964 94.4688 178.859 90.9479 179.896 89.0833C180.932 87.2188 181.552 85.7708 181.552 84.7344C181.552 84.1146 181.552 83.6979 181.552 83.0781C181.349 83.0781 181.349 83.0781 181.141 83.0781C180.932 83.0781 180.932 83.0781 180.724 83.0781C180.724 82.8698 180.932 82.6667 180.932 82.6667C181.141 82.25 180.932 81.8333 180.313 81.0052C179.688 80.1771 179.068 79.974 178.031 80.1771C177.411 80.3854 177 80.3854 176.375 80.5938C176.583 80.3854 176.792 79.974 176.792 79.7656C177.203 79.1458 176.792 78.5208 175.964 77.901C174.927 77.2813 172.651 76.4531 168.714 76.0365C164.781 75.625 163.745 74.3802 162.5 74.5885ZM304.156 77.4844C306.229 77.4844 307.26 77.6927 307.26 78.1094C307.469 78.5208 307.677 78.7292 308.297 78.7292C308.922 78.7292 309.75 78.7292 310.781 78.3177C311.406 78.1094 311.818 77.901 312.443 77.901C312.443 78.1094 312.646 78.5208 312.646 78.7292C312.854 79.349 313.682 79.349 315.339 79.349C316.995 79.349 317.823 79.5573 318.031 79.974C318.24 80.3854 318.651 80.5938 319.688 80.5938C320.724 80.3854 321.344 80.5938 321.344 81.2135C321.552 81.8385 321.969 81.8385 323 81.8385C324.036 81.6302 324.661 82.0417 324.865 82.6667C325.073 83.2865 325.693 83.4948 326.318 83.4948C326.938 83.2865 327.349 83.4948 327.349 83.9063C327.349 84.3229 327.557 84.526 327.974 84.526C328.182 84.526 328.594 84.7344 329.214 85.3542C329.839 85.9792 330.458 86.1875 331.078 86.1875C331.698 86.1875 332.323 86.3906 332.734 86.8073C333.151 87.2187 333.563 87.4271 333.979 87.4271C334.188 87.4271 334.391 87.4271 334.599 87.4271C334.599 87.6354 334.599 87.8438 334.599 88.0469C334.599 88.4635 334.807 88.6719 335.427 88.875C336.052 89.0833 336.464 89.2917 337.083 89.9115C337.708 90.5365 337.911 90.9479 337.911 91.3646C337.911 91.776 338.12 91.9844 338.536 92.1927C338.948 92.3958 339.156 92.6042 339.156 92.8125C339.156 93.0208 339.365 93.4323 339.776 93.6406C340.193 93.849 340.401 94.2604 340.401 94.6771C340.401 95.0885 340.604 95.5052 341.229 95.7135C341.849 95.9167 342.26 96.3333 342.885 97.3698C343.505 98.1979 343.714 98.8177 343.714 99.2344C343.714 99.6458 344.125 100.266 344.75 101.094C345.37 101.927 345.781 102.755 345.578 103.375C345.37 103.995 345.578 104.411 345.99 104.823C346.406 105.24 346.818 106.068 347.234 107.307C347.646 108.76 348.063 109.38 348.271 109.797C348.474 110.208 348.682 110.625 348.682 111.453C348.682 112.281 348.891 112.901 349.099 113.109C349.302 113.313 349.51 113.938 349.302 114.766C349.099 115.594 349.51 117.042 350.339 119.115C351.167 121.182 351.583 122.844 351.375 123.875C351.167 124.911 351.167 127.193 351.583 130.505C351.995 133.609 351.995 135.682 351.375 136.719C350.755 137.547 350.755 138.375 350.755 138.786C350.958 139.411 350.755 140.031 350.547 140.859C350.339 141.688 350.13 142.104 350.339 142.307C350.547 142.307 350.547 142.516 350.547 142.516C349.927 143.135 349.302 143.76 348.891 144.589C347.646 146.036 347.026 147.073 346.818 147.693C346.609 148.313 346.198 148.938 345.781 149.349C345.37 149.766 344.953 149.974 345.161 150.177C345.37 150.385 344.542 151.005 343.297 151.833C341.849 152.458 341.432 153.286 341.432 154.115C341.641 154.734 341.432 155.354 341.229 155.771C341.021 156.182 340.813 156.391 340.401 156.807C340.193 157.01 339.776 157.01 339.365 156.807C338.948 156.599 338.536 156.807 337.911 157.219C337.292 157.635 336.88 157.844 336.464 157.844C336.052 157.844 335.427 157.844 334.807 158.255C334.188 158.672 333.563 158.875 333.563 159.292C333.563 159.703 333.151 160.12 332.531 160.12C331.906 160.328 331.286 160.74 330.87 161.568C330.458 162.396 329.214 162.813 327.349 163.224C325.693 163.432 324.661 163.849 324.661 164.26C324.453 164.677 323.208 165.089 320.724 165.297C318.24 165.505 316.583 165.917 315.964 166.333C315.13 166.745 314.302 166.953 313.474 166.745C312.646 166.542 311.609 166.745 310.37 167.161C309.333 167.573 308.094 167.781 307.057 167.781C306.021 167.781 305.193 167.573 304.573 167.161C303.948 166.745 303.12 166.542 301.88 166.953C300.635 167.161 299.807 167.161 299.391 166.745C298.771 166.333 298.359 166.125 297.531 166.333C296.703 166.542 295.458 166.125 293.594 165.505C291.729 164.677 290.281 164.26 289.245 164.26C288.208 164.26 286.76 163.432 284.896 162.193C283.031 160.948 281.792 160.328 281.167 160.12C280.547 159.911 280.135 159.703 279.719 159.292C279.51 158.672 278.891 158.255 278.063 157.844C277.234 157.427 276.406 156.807 275.578 155.979C274.75 155.151 274.125 154.734 273.922 154.734C273.505 154.734 272.266 153.286 269.776 150.177C267.5 147.281 265.427 143.964 263.979 140.651C262.531 137.339 261.703 135.266 261.703 134.438C261.703 133.609 261.495 132.573 260.875 131.333C260.25 130.089 260.047 128.432 260.047 126.365C260.047 124.292 259.839 123.047 259.63 122.635C259.422 122.219 259.422 120.771 259.422 118.495C259.422 116.214 259.839 113.938 260.458 112.073C261.078 110.208 261.286 108.964 261.286 108.135C261.078 107.307 261.286 106.479 261.906 105.443C262.531 104.411 262.734 103.583 262.734 103.167C262.734 102.755 262.943 102.13 263.359 101.51C263.771 100.891 263.979 100.266 264.188 99.4375C264.396 98.6094 264.807 97.7813 265.635 97.1615C266.464 96.3333 266.88 95.5052 267.292 94.6771C267.5 93.849 267.911 93.0208 268.328 92.1927C268.745 91.3646 271.229 89.7083 275.578 86.8073C279.719 83.9063 282.203 82.4583 282.62 82.6667C283.031 82.8698 283.448 82.8698 283.859 82.6667C284.276 82.4583 284.688 82.4583 285.516 82.4583C286.344 82.4583 286.76 82.25 287.589 81.6302C288.208 80.8021 289.036 80.5938 289.661 80.5938C290.281 80.8021 291.318 80.5937 292.766 79.974C294.214 79.349 295.042 79.349 295.25 79.7656C295.25 79.974 295.458 80.1771 295.458 80.3854C295.87 80.1771 296.286 79.7656 296.495 79.5573C296.906 79.349 297.323 78.9375 297.531 78.7292C297.734 78.9375 297.734 79.1458 297.734 79.1458C297.943 79.5573 298.151 79.5573 298.563 79.5573C298.979 79.5573 299.391 79.349 300.224 78.7292C300.844 77.6927 302.292 77.4844 304.156 77.4844ZM463.62 146.245C463.417 146.656 462.589 146.865 461.344 146.865C460.099 146.865 459.271 147.073 459.068 147.281C458.859 147.484 458.859 147.484 458.651 147.693C458.651 147.484 458.443 147.281 458.443 147.073C458.24 146.656 457.615 146.453 456.167 146.656C454.922 146.865 453.891 147.073 453.474 147.693C452.854 148.313 452.229 148.313 451.401 148.313C450.573 148.313 449.333 148.729 447.26 149.766C446.224 150.385 445.193 150.802 444.156 151.422C444.156 151.214 443.948 150.802 443.948 150.594C443.948 149.974 443.531 149.766 443.12 149.766C442.703 149.766 442.083 149.974 441.464 150.385C440.844 150.802 440.01 151.005 438.563 151.005C437.115 151.005 435.87 151.422 434.63 152.458C433.594 153.286 432.557 153.698 431.938 153.286C431.109 152.87 430.281 153.078 429.036 154.115C427.792 154.943 426.964 155.354 426.344 154.943C425.516 154.526 424.688 154.943 423.443 155.979C422.203 157.219 421.167 157.635 420.547 157.427C419.922 157.219 419.302 157.427 418.266 157.839C417.438 158.464 416.609 158.672 415.573 158.875C414.542 159.083 413.917 159.083 413.917 159.292C413.714 159.5 413.505 159.5 412.885 159.292C412.26 159.083 411.432 159.292 410.604 160.12C409.776 160.948 408.948 161.156 408.536 161.156C408.12 160.948 407.5 161.359 406.875 161.984C406.255 162.604 405.635 163.021 405.016 162.813C404.391 162.604 403.563 163.021 402.115 164.052C400.667 165.089 399.63 165.505 399.214 165.505C398.802 165.505 398.177 165.505 397.557 165.917C396.938 166.125 396.521 166.542 396.109 167.161C395.901 167.781 395.484 167.99 394.865 167.99C394.245 168.198 394.036 168.401 393.828 168.609C393.625 169.026 393.208 169.026 392.797 169.026C392.38 169.026 391.964 169.229 391.552 169.646C391.344 170.063 390.516 170.474 389.479 170.682C388.24 170.891 387.203 171.719 385.958 172.75C384.719 173.786 383.682 174.411 382.854 174.615C382.026 174.823 380.99 175.443 379.745 176.688C378.505 177.724 377.057 178.964 375.193 180C373.328 181.245 371.672 182.484 370.427 183.938C369.188 185.594 368.359 186.63 368.359 187.458C368.359 187.87 368.359 188.286 368.359 188.698L368.563 188.49C368.771 188.286 369.188 188.286 369.391 188.286C369.599 188.286 369.807 188.286 370.016 188.286V188.49V188.698C370.427 188.49 370.844 188.49 371.255 188.286C372.083 187.87 372.708 187.87 372.911 187.87C373.12 187.87 373.12 188.078 373.328 188.078C373.328 187.87 373.536 187.661 373.536 187.661C373.536 187.458 374.156 187.042 375.396 186.833C376.641 186.422 377.26 186.214 377.469 186.005C377.677 185.594 378.089 185.594 379.125 185.594C379.953 185.797 380.37 185.385 380.781 184.969C380.99 184.349 382.026 184.141 383.891 183.938C385.755 183.729 386.786 183.313 386.995 183.109C387.203 182.693 387.615 182.484 388.448 182.281C389.276 182.073 389.688 182.073 389.688 181.865C389.896 181.656 390.932 181.448 393 181.036C395.073 180.828 396.318 180.417 396.729 180C397.146 179.589 397.766 179.38 398.385 179.38C399.214 179.38 399.63 179.172 399.833 178.964C400.042 178.76 400.458 178.552 401.286 178.76C401.906 178.964 402.526 178.76 402.526 178.344C402.734 177.932 403.151 177.724 404.188 177.724C404.599 177.724 405.219 177.724 405.635 177.724C405.427 178.135 405.427 178.552 405.427 179.172C405.219 180.208 405.219 181.036 405.219 181.865C405.219 182.693 405.427 183.109 405.844 183.521C406.255 183.729 406.255 183.938 406.255 184.349C406.255 184.557 406.047 184.969 405.427 184.969C404.807 184.969 404.188 185.594 403.771 186.63C403.354 187.661 403.354 188.906 403.563 190.354C403.771 191.807 403.771 192.839 403.151 193.255C402.526 193.667 402.323 194.5 401.906 195.531C401.495 196.359 401.495 197.813 401.495 199.26C401.495 200.708 401.495 201.745 401.078 202.161C400.667 202.573 400.25 203.401 400.042 204.646C399.833 205.891 399.63 206.922 399.833 207.75C400.042 208.578 399.63 209.203 399.214 209.406C398.594 209.823 398.385 210.24 398.177 210.651C397.974 211.271 397.974 211.896 397.974 212.724C398.177 213.552 397.974 214.172 397.349 214.38C396.729 214.589 396.521 215.417 396.318 216.865C396.109 218.313 395.693 219.141 395.281 219.349C394.656 219.557 394.453 220.385 394.036 221.625C393.828 222.87 393.417 223.906 392.797 224.318C392.589 224.526 392.172 224.734 391.964 224.943C392.172 225.146 392.38 225.354 392.589 225.563C392.797 225.771 393 225.979 393.208 226.182C392.797 226.391 392.38 226.807 391.76 227.01C390.932 227.635 390.104 228.667 389.896 229.911C389.688 231.156 389.276 231.984 389.068 231.984C388.859 231.984 388.651 232.396 388.448 233.224C388.24 234.052 387.823 234.88 387.411 235.505C386.786 236.125 386.583 236.536 386.786 236.953C386.995 237.365 386.583 237.99 385.755 238.818C384.927 239.646 384.51 240.474 384.719 240.682C384.927 241.094 384.302 241.922 382.646 243.578C380.99 245.234 380.37 246.271 380.37 246.688C380.37 247.099 379.745 247.927 378.714 248.964C378.089 249.583 377.469 250 377.057 250.62C377.26 250.828 377.469 250.828 377.469 251.036C377.677 251.448 377.885 251.865 377.677 252.276C377.469 252.901 377.057 253.104 376.641 253.313C376.021 253.521 375.813 253.938 375.813 254.349C375.604 254.766 374.365 256.005 372.083 258.286C369.599 260.354 368.563 261.802 368.563 262.427C368.563 263.047 367.943 263.875 366.906 264.911C365.87 265.948 363.802 267.813 360.901 270.297C358 272.781 356.135 274.646 355.307 275.682C354.688 276.922 353.448 277.958 351.583 278.786C349.927 279.615 348.474 280.859 347.646 282.099C346.818 283.344 345.37 284.792 343.505 286.036C341.641 287.484 339.984 288.729 338.328 289.557C336.672 290.385 335.635 291.005 335.016 291.005C334.188 291.005 333.563 291.422 332.943 292.042C332.323 292.87 331.698 293.078 331.286 293.078C330.87 293.078 330.25 293.49 329.63 294.115C329.01 294.734 328.385 295.146 327.974 295.146C327.557 295.146 326.938 295.563 326.318 296.182C325.693 296.802 325.073 297.219 324.453 297.219C323.828 297.219 323 297.839 322.172 298.875C321.76 299.495 321.344 300.12 320.724 300.531C320.516 300.323 320.516 300.12 320.516 300.12C320.313 299.911 320.104 299.703 319.688 299.703C319.276 299.703 318.031 300.531 315.958 302.188C313.682 303.844 312.234 304.672 311.406 304.672C310.578 304.672 309.75 304.88 309.125 305.5C308.505 306.125 308.089 306.333 307.677 306.333C307.26 306.125 306.849 306.536 306.021 307.161C305.193 307.781 304.365 307.99 303.74 307.99C303.12 307.99 302.083 308.401 301.052 309.438C300.016 310.474 299.188 310.682 298.563 310.474C297.943 310.266 297.115 310.682 296.078 311.922C295.042 313.167 293.802 313.786 292.557 313.786C291.318 313.786 290.49 313.786 290.281 313.578C290.073 313.37 289.453 313.37 288.833 313.578C288.208 313.786 287.589 314.406 287.172 315.234C286.552 316.063 286.344 316.479 286.141 316.479C285.932 316.479 285.932 316.479 285.724 316.479C285.724 316.271 285.724 316.271 285.724 316.063C285.724 315.859 285.724 315.859 285.724 315.651C285.313 315.651 284.896 315.859 284.484 315.859C283.651 316.063 282.62 316.479 281.583 317.307C280.339 318.135 279.51 318.552 278.682 318.344C277.854 318.135 277.026 318.552 275.99 319.172C274.953 320 274.125 320.208 273.714 320C273.094 319.792 272.677 320 272.266 320.411C271.849 320.828 271.229 321.036 270.604 321.036C269.776 321.036 269.365 321.24 269.365 321.448C269.156 321.865 268.536 321.865 267.292 321.865C266.052 321.865 265.224 322.068 264.807 322.484C264.396 322.901 263.979 323.104 263.359 322.901C262.734 322.693 262.115 323.104 260.875 323.729C259.63 324.349 258.802 324.557 258.182 324.349C257.766 324.141 257.557 324.141 257.354 324.141C257.354 324.349 257.146 324.557 257.146 324.76C257.146 325.177 256.526 325.385 255.281 325.177C254.036 324.969 253.417 325.177 252.797 325.589C252.177 326.005 251.344 326.214 250.313 326.005C249.068 325.797 248.448 325.797 248.24 326.214C248.031 326.625 246.995 326.833 245.339 327.042C243.682 327.25 242.854 327.25 242.646 327.453C242.443 327.661 242.026 327.661 241.406 327.661C240.786 327.661 240.161 327.87 239.953 328.078C239.75 328.281 239.75 328.281 239.542 328.49C239.542 328.281 239.333 328.281 239.333 328.078C239.125 327.87 238.922 327.87 238.505 327.87C238.094 327.87 237.677 328.078 237.677 328.281C237.469 328.698 236.849 328.698 235.813 328.49C234.573 328.281 233.948 328.281 233.536 328.698C233.12 329.109 232.292 329.318 231.255 329.318C230.224 329.318 229.188 329.526 228.568 330.146C227.943 330.771 227.531 330.771 227.115 330.563C226.906 330.354 225.875 330.354 224.63 330.563C223.182 330.771 222.354 330.771 221.729 330.354C221.109 330.146 220.49 330.146 219.865 330.354C219.036 330.771 218.208 330.771 217.38 330.354C216.349 330.146 215.932 329.938 215.724 330.146C215.516 330.354 215.104 330.563 214.276 330.563C213.448 330.563 213.031 330.771 212.828 331.182C212.828 331.391 212.62 331.599 212.62 331.599C212.411 331.391 212.203 331.391 212.203 331.182C212 330.974 211.167 330.974 209.927 331.182C208.682 331.599 207.854 331.599 207.443 331.182C207.026 330.974 206.406 330.771 205.578 330.771C204.75 330.771 204.333 330.974 204.13 330.974C203.922 331.182 203.505 331.182 202.885 330.974C202.266 330.771 201.641 330.771 201.641 331.182C201.438 331.599 201.229 331.599 200.609 331.599C199.984 331.599 199.776 331.599 199.573 331.802C199.365 332.01 198.948 332.01 198.745 331.802C198.536 331.599 197.917 331.599 197.089 331.802C196.26 332.01 195.844 332.01 195.427 331.802C195.016 331.599 193.979 331.599 192.323 331.802C190.667 332.01 189.422 332.01 188.802 331.599C188.182 331.182 186.938 331.182 185.49 331.599C184.87 331.802 184.042 331.802 183.208 332.01V331.802V331.599C182.38 331.599 181.552 331.599 180.932 331.599C179.276 331.599 178.24 331.391 177.828 330.974C177.411 330.563 177 330.563 176.583 330.771C176.172 330.974 175.755 330.974 175.135 330.771C174.51 330.354 173.682 330.354 172.854 330.354C171.823 330.563 171.198 330.354 170.99 330.146C170.578 329.734 170.161 329.734 169.542 329.734C168.922 329.938 168.505 329.734 168.302 329.526C168.094 329.318 167.677 329.109 167.469 329.318C167.057 329.526 166.641 329.526 166.438 329.318C166.229 329.109 165.401 329.109 163.953 329.318C162.5 329.526 161.464 329.526 160.844 328.906C160.224 328.49 159.396 328.281 158.568 328.698C157.74 329.109 156.911 328.906 156.495 328.49C155.875 328.078 155.25 327.87 154.839 328.078C154.422 328.281 154.01 328.078 153.594 327.87C153.182 327.453 152.563 327.453 151.318 327.453C150.073 327.453 149.453 327.25 149.245 327.042C149.042 326.833 148.625 326.625 147.797 326.833C146.969 327.042 146.141 326.625 145.313 326.005C144.484 325.385 143.865 325.177 143.24 325.385C142.62 325.589 142.203 325.385 141.583 324.969C140.964 324.557 140.547 324.349 140.135 324.557C139.719 324.76 139.307 324.76 138.682 324.76C138.063 324.76 137.854 324.557 137.443 324.141C137.026 323.729 136.615 323.521 135.578 323.729C134.75 323.932 133.922 323.729 133.505 323.313C133.094 322.693 132.677 322.484 131.849 322.484C131.229 322.484 130.813 322.276 130.813 322.068C130.813 321.865 130.193 321.656 128.953 321.656C127.708 321.656 127.089 321.448 126.88 321.24C126.672 320.828 126.052 320.828 124.807 320.828C123.568 320.828 122.943 320.62 122.74 320.411C122.531 320 122.323 320 121.703 320C121.083 320 120.667 319.792 120.255 319.172C119.839 318.552 119.422 318.344 118.594 318.344C118.182 318.344 117.766 318.344 117.354 318.344C117.354 318.135 117.354 318.135 117.354 317.927C117.354 317.719 116.734 317.099 115.698 316.271C114.661 315.443 113.833 315.031 113.417 315.234C113.005 315.443 112.589 315.234 112.385 314.823C112.385 314.615 111.76 314.406 111.141 314.615C110.521 314.823 109.693 314.406 108.865 313.786C108.036 313.167 107.203 312.542 106.172 312.542C105.344 312.542 104.516 312.13 103.891 311.302C103.271 310.474 102.443 309.849 101.615 309.438C100.786 309.021 99.9584 308.609 99.5417 307.781C98.9219 307.161 98.5052 306.953 97.8854 306.953C97.2656 307.161 95.8177 306.125 93.5365 304.26C91.2604 302.396 89.8073 301.359 89.3959 301.359C88.9792 301.359 88.5677 301.151 88.1511 300.531C87.7396 299.911 87.3229 299.703 86.7031 299.703C86.0834 299.703 85.875 299.495 85.6667 299.292C85.6667 298.875 85.0469 298.667 83.8021 298.255C82.5625 297.839 81.9375 297.427 81.5261 296.802C81.1094 296.182 80.9063 295.974 80.4896 295.974C80.2813 295.974 80.0781 295.974 79.8698 295.974C79.8698 295.563 79.8698 295.354 79.8698 294.943C79.8698 294.318 79.4531 293.906 78.8334 293.49C78.2136 293.078 77.7969 292.87 77.7969 292.453C77.7969 292.25 77.3854 292.042 76.9688 292.25C76.5573 292.453 76.1406 292.042 75.5209 291.214C74.8959 290.385 74.0677 289.349 72.8281 288.313C71.375 287.073 70.5469 286.656 70.3438 286.656C70.1354 286.656 68.8906 285.62 66.8229 283.344C64.9584 281.063 63.5052 279.823 62.8854 279.406C62.2656 278.995 61.4375 278.375 60.8177 277.339C59.9896 276.302 59.3646 275.682 58.9531 275.682C58.5365 275.682 58.125 275.266 58.125 274.854C58.125 274.438 57.5 273.609 56.4688 272.573C55.4323 271.536 54.8073 270.917 54.3959 270.917C53.9792 270.917 53.3594 270.089 52.5313 268.641C51.7031 267.188 50.4584 265.74 49.0104 264.292C47.5625 262.839 46.9375 262.01 46.9375 261.599C46.9375 261.182 46.1094 260.146 44.6615 258.49C43.2136 256.625 42.1771 255.177 41.5573 254.141C41.349 253.521 40.9323 252.901 40.7292 252.484C40.9323 252.276 41.349 252.276 41.5573 252.276C42.1771 252.073 42.3854 251.656 42.7969 251.245C43.2136 250.828 44.25 249.792 45.9063 248.552C47.5625 247.307 48.599 246.479 48.599 246.271C48.599 245.859 48.8021 245.651 49.2188 245.651C49.6302 245.651 50.6667 244.823 52.3229 243.167C53.9792 241.51 55.0156 240.682 55.6406 240.474C56.2604 240.266 57.2969 239.229 59.1563 237.365C61.0209 235.505 61.849 233.641 61.849 231.776C61.6459 229.911 61.4375 228.875 60.8177 228.875C60.4011 228.875 60.1927 228.875 59.7813 228.667C59.7813 228.464 59.7813 228.464 59.9896 228.255C59.9896 227.839 59.9896 227.635 59.5729 227.219C59.3646 227.01 58.7448 226.599 57.7084 226.391C56.6719 226.182 56.0521 225.771 55.6354 225.354C55.224 224.943 54.1875 224.318 52.7396 223.698C51.2865 223.078 50.4584 222.87 50.2552 222.87C50.0469 222.87 50.0469 222.87 49.8386 222.87C49.8386 223.078 49.8386 223.078 49.8386 223.286C49.8386 223.49 49.8386 223.49 49.8386 223.698C49.6302 223.49 49.2188 223.49 49.0104 223.49C48.3906 223.286 47.974 223.286 47.1459 223.286C46.5261 223.286 45.9063 223.698 45.4896 224.115C45.2813 224.526 44.25 224.943 42.7969 225.354C41.349 225.771 39.9011 226.391 38.8646 227.219C37.8281 228.047 36.7917 228.667 35.7552 229.083C34.7188 229.495 34.099 229.911 33.6875 230.531C33.2709 231.156 33.0625 231.568 33.2709 231.984C33.4792 232.396 32.8594 232.813 31.8229 233.016C30.7865 233.224 29.75 234.052 28.9219 235.297C28.0938 236.536 27.474 237.365 27.474 237.573C27.474 237.781 27.2656 238.193 26.849 238.193C26.4375 238.401 26.0209 238.609 25.8177 239.026C25.6094 239.438 25.4011 239.854 25.4011 240.474C25.6094 241.094 25.1927 241.302 24.5729 241.714C23.7448 242.13 23.3281 242.547 22.9167 243.578C22.5 244.406 21.8802 245.234 21.2604 245.443C20.6406 245.651 19.8125 246.688 19.1875 248.344C18.3594 250 17.7396 250.828 17.1198 251.036C16.4948 251.448 16.2917 251.865 16.0834 252.693C15.875 253.521 15.4584 254.141 14.8386 254.557C14.2188 254.969 13.599 256.214 12.974 257.661C12.3542 259.318 11.7344 260.354 10.9063 261.391C10.2813 262.427 9.66148 263.255 9.45315 263.875C9.25002 264.495 9.04169 264.911 8.62502 265.12C8.21356 265.323 8.00523 265.74 8.00523 266.359C8.00523 266.984 7.58856 267.604 7.1771 268.016C6.76044 268.224 6.34898 268.844 6.14065 269.88C5.93231 270.917 5.72919 271.333 5.31252 271.536C4.90106 271.745 4.69273 272.365 4.27606 274.021C3.86461 275.682 3.44794 276.51 3.23961 276.714C2.82815 276.922 2.82815 277.13 2.82815 277.542C2.82815 277.75 2.82815 278.167 2.41148 278.786C2.00002 279.406 1.79169 280.234 1.58335 281.271C1.58335 282.307 1.1719 283.135 0.963562 283.755C0.552104 284.38 0.552104 284.792 0.552104 285.208C0.552104 285.62 0.552104 285.828 0.34377 286.036C0.135437 286.036 0.135437 286.656 0.135437 287.276C0.135437 288.104 0.135437 288.521 0.34377 288.521C0.34377 288.521 0.552104 288.729 0.755229 288.729C0.755229 288.729 0.552104 288.932 0.34377 288.932L0.135437 289.141C0.135437 289.349 0.34377 289.557 0.34377 289.76C0.552104 290.177 1.1719 290.594 2.00002 290.594C3.03648 290.797 3.44794 291.005 3.65627 291.422C3.65627 291.625 3.86461 291.833 3.86461 291.833C4.27606 291.625 4.69273 291.214 4.90106 291.005C5.52085 290.385 8.00523 287.693 11.9427 282.927C15.875 277.958 18.1511 275.474 18.5677 275.057C19.1875 274.646 19.3959 274.229 19.6042 273.818C19.8125 273.401 21.8802 271.125 25.8177 267.188C27.8854 265.323 29.75 263.255 31.6146 261.391C31.8229 262.01 31.8229 262.635 32.0313 263.047C32.2344 264.292 32.6511 265.12 33.0625 265.948C33.6875 266.776 33.6875 267.188 33.6875 267.604C33.6875 267.813 33.6875 268.016 33.8906 268.432C34.099 268.641 34.3073 268.844 34.7188 268.844C34.9271 268.844 34.9271 268.844 35.1354 268.844C35.1354 269.052 35.1354 269.469 34.9271 269.672C34.9271 270.297 34.9271 270.708 35.3438 271.333C35.5469 271.953 35.9636 272.365 36.5834 272.781C37.2084 273.193 37.4115 273.401 37.2084 273.818C37.2084 274.229 37.4115 275.057 38.0365 276.302C38.6563 277.542 39.2761 278.37 39.9011 278.995C40.5209 279.615 41.1406 280.651 41.9688 282.099C42.7969 283.755 43.4167 284.583 44.0417 284.583C44.6615 284.583 45.0781 285.208 45.0781 286.036C45.0781 286.865 45.4896 287.484 46.1094 287.693C46.9375 287.901 47.1459 288.313 47.1459 288.932C47.1459 289.557 47.3542 289.76 47.974 290.177C48.599 290.385 49.0104 290.797 49.0104 291.422C49.0104 292.042 49.2188 292.453 49.4271 292.87C49.8386 293.281 50.0469 293.698 50.4584 293.698C50.875 293.906 51.2865 294.318 51.7031 295.146C52.1198 295.974 52.7396 296.391 53.3594 296.802C53.9792 297.219 54.3959 297.63 54.3959 298.047C54.3959 298.464 54.8073 298.875 55.4323 299.292C56.2604 299.703 56.4688 300.12 56.4688 300.531C56.4688 300.948 56.4688 301.359 56.8802 301.359C57.2969 301.568 57.7084 301.776 57.9167 302.188C58.125 302.813 58.9531 303.432 60.1927 304.26C61.6459 305.089 62.2656 305.917 62.2656 306.536C62.474 307.161 62.6771 307.573 63.3021 307.573C63.9219 307.573 64.3386 308.193 64.9584 308.818C65.5781 309.438 65.9948 310.057 66.6146 310.057C67.2344 310.266 67.4427 310.682 67.8594 311.302C68.2709 311.922 68.6875 312.339 69.5156 312.339C69.9271 312.339 70.3438 312.339 70.7552 312.339C70.7552 312.75 70.7552 312.958 70.5469 313.37C70.3438 313.995 70.9636 314.406 71.7917 315.031C72.8281 315.443 73.2396 315.859 73.0365 316.063C73.0365 316.271 73.4479 316.891 74.6927 317.927C75.9323 318.964 77.3854 319.583 78.625 319.792C80.0781 320 81.1094 320.411 81.3177 320.828C81.7344 321.24 81.9375 321.656 81.9375 322.484C81.9375 323.313 82.7656 323.729 84.2188 324.141C85.6667 324.557 86.9115 325.385 87.7396 326.005C88.5677 326.625 89.3959 327.042 90.224 327.042C91.0521 327.042 91.4636 327.25 91.6719 327.661C91.8802 328.078 92.0886 328.281 92.7084 328.49C93.3281 328.698 93.5365 328.906 93.5365 329.318C93.5365 329.734 94.1563 330.146 95.1927 330.146C96.2292 330.354 96.849 330.563 97.2656 331.182C97.474 331.802 98.0938 332.01 98.7136 332.01C99.3334 331.802 100.786 332.219 103.063 332.839C105.344 333.458 106.583 334.083 106.792 334.703C107 335.323 107.62 335.531 108.656 335.531C109.276 335.531 109.693 335.531 110.313 335.531C110.313 335.74 110.313 336.151 110.313 336.359C110.313 336.979 111.552 337.396 114.042 338.016C116.526 338.641 117.766 339.052 117.766 339.469C117.766 339.88 117.974 340.089 118.182 340.297C118.391 340.5 119.219 340.5 120.458 340.297C121.703 340.089 122.323 340.5 122.531 341.125C122.74 341.745 123.151 341.953 124.188 341.953C125.224 341.953 125.844 342.156 126.052 342.573C126.26 342.99 127.089 343.193 128.125 342.99C129.156 342.781 129.781 342.99 130.193 343.401C130.401 343.818 131.229 344.229 132.677 344.438C134.13 344.646 135.786 345.057 137.854 345.057C139.927 345.057 140.964 345.474 140.964 345.885C140.964 346.302 141.172 346.505 141.375 346.714C141.792 346.714 142.411 346.714 143.656 346.505C144.896 346.302 145.521 346.505 145.724 346.922C145.724 347.542 146.349 347.75 146.969 347.75C147.589 347.75 148.214 347.958 148.625 348.167C149.042 348.37 149.453 348.578 150.073 348.37C150.698 348.167 151.109 348.37 151.318 348.578C151.526 348.995 152.974 349.198 155.667 349.198C158.359 349.406 159.807 349.615 160.016 349.823C160.224 350.026 161.26 350.026 162.917 349.823C164.573 349.615 165.609 349.615 166.021 349.823C166.229 350.026 167.057 350.234 168.094 350.234C169.333 350.234 169.958 350.443 170.37 350.854C170.786 351.271 172.026 351.479 174.099 351.271C176.375 351.063 177.62 351.271 178.031 351.688C178.448 352.099 180.313 352.099 183.417 351.891C185.073 351.688 186.729 351.479 188.182 351.479C188.182 351.891 188.182 352.099 188.182 352.307C188.182 352.927 188.802 353.344 190.25 353.344C191.703 353.344 192.943 353.344 193.979 352.927C195.016 352.516 195.844 352.516 196.26 352.719C196.672 352.927 197.5 353.135 198.536 352.927C199.776 352.927 201.021 352.927 202.469 353.344C204.13 353.547 204.958 353.755 205.161 353.547C205.37 353.344 205.99 353.344 206.818 353.344C207.646 353.344 209.099 352.927 210.755 352.099C212.411 351.271 213.656 350.854 214.068 350.854C214.276 350.854 214.484 350.854 214.688 350.854C214.688 351.063 214.688 351.271 214.688 351.479C214.688 351.891 214.896 352.099 215.104 352.307C215.516 352.516 216.349 352.099 218.005 351.688C219.661 351.271 220.698 351.271 220.901 351.891C221.109 352.516 221.526 352.719 221.938 352.719C222.354 352.719 222.766 352.516 223.182 352.307C223.594 352.099 225.047 351.688 227.323 351.688C229.807 351.688 231.672 351.271 232.917 350.854C234.156 350.443 235.401 350.234 236.229 350.651C237.057 351.063 238.094 350.651 238.714 350.234C239.542 349.615 240.37 349.615 241.198 349.823C242.234 350.026 242.854 350.026 243.063 349.615C243.271 349.198 243.891 349.198 244.719 349.198C245.339 349.198 246.375 348.786 247.411 348.167C248.656 347.339 249.688 346.922 250.724 346.505C251.76 346.094 252.38 346.302 252.797 346.714C253.208 347.339 253.417 347.542 253.833 347.542C254.245 347.542 256.109 346.714 259.63 345.266C261.286 344.438 262.943 343.609 264.807 342.984C264.807 343.193 264.807 343.401 265.016 343.609C265.224 344.021 265.427 344.229 265.844 344.438C266.255 344.646 266.88 344.438 267.5 344.021C268.12 343.609 268.948 343.401 269.573 343.401C270.193 343.401 271.229 342.984 272.469 341.953C273.922 340.917 274.75 340.708 274.953 340.917C275.161 341.328 275.781 341.328 276.818 341.328C277.854 341.328 278.891 340.917 280.339 340.297C281.792 339.469 282.62 339.052 283.031 338.635C283.24 338.224 283.859 338.016 284.688 337.807C285.516 337.604 286.76 337.604 288.208 337.604C289.661 337.604 290.901 338.016 291.729 338.432C292.557 338.844 293.385 339.052 294.01 338.844C294.839 338.635 295.25 338.844 295.667 339.052C296.078 339.26 298.151 339.88 301.88 340.297C305.813 340.917 307.885 341.328 308.505 341.953C309.125 342.573 309.75 342.573 310.161 342.365C310.578 342.156 310.99 342.156 311.406 342.781C311.818 343.193 312.646 343.401 313.682 343.609C314.719 343.609 315.547 344.021 315.964 344.438C316.375 344.849 316.792 345.057 317.411 345.057C318.031 345.057 318.651 345.474 319.688 346.094C320.516 346.714 321.344 346.922 321.552 346.922C321.76 346.714 322.172 346.922 322.589 347.339C323 347.75 323.417 347.958 324.036 347.75C324.661 347.542 325.693 347.958 327.146 348.578C328.594 349.198 330.042 350.026 331.286 351.271C332.531 352.516 333.359 352.927 333.771 352.516C334.188 352.099 334.807 352.516 335.844 353.547C336.88 354.583 337.5 355 337.708 355C338.12 354.792 338.536 355.203 339.365 355.828C340.193 356.656 340.604 356.865 341.021 356.656C341.432 356.448 342.057 356.865 342.885 357.484C343.714 358.313 344.542 358.724 344.953 358.521C345.37 358.313 346.406 359.141 348.271 360.385C349.927 361.833 351.375 363.073 352.203 364.109C353.031 365.354 355.104 367.01 358.208 369.703C361.521 372.396 363.802 374.464 365.25 376.328C366.698 378.193 368.359 380.057 370.219 381.714C372.083 383.37 373.328 384.823 374.156 386.063C374.776 387.307 376.021 388.964 377.885 390.828C379.542 392.693 381.198 394.76 382.854 396.833C384.51 398.901 385.547 400.354 386.375 400.974C387.203 401.594 387.823 402.219 388.031 402.839C388.24 403.458 389.276 404.495 390.724 406.151C392.172 407.807 393.625 409.464 394.656 411.328C395.693 413.193 396.729 414.641 397.766 416.094C398.802 417.333 399.63 418.161 400.042 418.786C400.25 418.99 400.667 419.406 400.87 419.615C401.078 419.406 401.078 419.406 401.286 419.198C401.495 418.99 401.906 418.786 402.115 418.99C402.526 419.198 402.734 419.615 402.943 420.026C403.151 420.443 403.563 421.063 404.182 421.479C404.807 421.891 405.635 422.719 406.464 424.172C407.292 425.62 407.911 426.24 408.328 426.24C408.74 426.24 409.365 426.656 410.396 427.693C411.224 428.521 412.052 428.932 412.469 428.932C412.885 428.932 413.505 429.141 414.542 429.969C415.37 430.797 416.198 431.208 416.818 431.208C417.438 431.208 417.854 431.625 418.682 432.245C419.51 432.87 419.922 433.281 420.339 433.281C420.755 433.281 421.167 433.698 421.583 434.318C421.995 434.938 422.615 435.354 423.24 435.563C423.859 435.563 424.068 435.563 424.276 435.354C424.479 435.354 424.479 435.146 424.479 435.146C424.479 435.354 424.688 435.766 424.688 436.182C424.688 436.802 425.516 437.422 427.172 437.839C428.828 438.25 430.073 439.078 431.313 439.911C432.557 440.74 433.802 440.943 435.25 440.943C436.698 440.74 438.354 440.943 440.427 441.359C441.464 441.568 442.5 441.979 443.531 442.188V441.979V441.771C443.74 441.771 443.74 441.771 443.948 441.979C444.365 441.979 444.568 441.979 444.568 441.771C444.568 441.568 445.813 441.568 447.88 441.568C449.953 441.568 451.198 441.359 451.401 441.359C451.609 441.151 451.609 440.943 451.609 440.531C451.609 440.323 451.401 440.115 451.401 440.115C452.026 440.323 452.854 440.323 453.682 440.531C455.13 440.74 455.958 440.74 456.375 440.115C456.786 439.495 457.615 439.286 459.068 439.286C460.516 439.286 461.344 438.875 461.76 438.25C462.172 437.422 462.792 437.219 463.828 437.422C464.865 437.63 465.484 437.219 465.901 436.391C466.313 435.563 466.938 435.146 467.969 435.146C469.005 435.354 469.833 434.938 470.25 434.318C470.87 433.49 471.286 433.281 471.906 433.281C472.526 433.281 472.734 433.073 473.151 432.245C473.354 431.625 473.771 431.208 473.979 431.208C474.182 431.208 474.599 431.005 474.599 430.797C474.599 430.589 475.01 430.38 475.427 430.589C476.047 430.797 476.464 430.589 476.875 430.177C477.292 429.76 477.5 429.349 477.703 428.521C477.703 427.896 478.12 427.693 478.74 427.693C479.359 427.693 479.776 427.484 480.396 427.068C480.813 426.656 481.021 426.24 481.224 425.411C481.224 425.203 481.224 424.792 481.432 424.583C481.641 424.583 481.849 424.583 482.052 424.792C482.469 425 482.88 424.792 482.88 424.583C483.089 424.375 483.297 423.755 483.297 422.927C483.297 422.51 483.297 422.099 483.297 421.479C483.708 421.479 484.125 421.479 484.542 421.479C485.37 421.479 486.198 421.063 486.818 420.026C487.646 419.198 487.854 418.161 487.854 417.542C487.854 416.714 488.057 416.302 488.682 416.302C489.302 416.094 489.922 415.474 490.339 414.229C490.75 412.984 491.167 412.365 491.375 412.365C491.786 412.365 491.995 412.156 492.203 411.953C492.406 411.745 492.406 410.708 492.203 409.052C492.203 408.224 491.995 407.396 491.995 406.568C492.406 406.568 492.823 406.771 493.24 406.771C493.651 406.771 494.068 406.771 494.479 406.979C494.479 406.359 494.479 405.943 494.688 405.323C494.896 404.286 495.099 403.667 495.307 403.667C495.516 403.667 495.927 403.458 496.135 403.25C496.344 403.047 496.344 402.219 496.344 400.974C496.344 399.938 496.344 399.109 496.76 398.698C497.172 398.281 497.172 397.042 496.964 394.76C496.76 393.724 496.76 392.693 496.552 391.448C496.964 391.448 497.38 391.656 497.589 391.656C498.417 391.865 498.828 391.656 499.036 391.24C499.245 390.828 499.245 389.375 499.245 386.891C499.245 384.406 499.036 382.13 498.828 379.849C498.62 377.573 498.62 376.536 499.036 376.536C499.448 376.328 499.656 376.125 499.865 375.5C499.865 374.88 499.656 373.224 499.245 370.74C498.828 368.255 498.417 366.594 498 365.974C497.792 365.354 497.38 364.318 497.38 362.453C497.38 360.589 496.76 357.068 495.724 352.099C494.688 347.13 493.859 343.609 493.031 342.156C492.203 340.708 491.995 339.469 491.995 338.635C491.995 337.807 491.578 336.979 490.958 335.948C490.13 335.115 489.922 334.083 489.922 333.047C490.13 332.01 489.922 331.182 489.302 330.354C488.682 329.734 488.474 328.906 488.682 328.078C488.891 327.453 488.266 326.214 487.026 324.557C485.99 322.896 485.37 321.865 485.37 321.656C485.573 321.448 485.37 320.62 484.745 319.38C484.125 318.135 483.708 317.516 483.505 317.307C483.297 317.099 482.88 316.479 482.677 315.443C482.469 314.406 482.052 313.786 481.641 313.167C481.021 312.75 480.604 311.922 479.984 310.885C479.359 309.849 478.948 308.818 478.12 308.193C477.292 307.573 476.875 306.745 476.672 305.917C476.464 305.089 475.844 304.052 475.01 303.016C473.979 302.188 473.151 300.948 472.115 299.286C471.078 297.63 470.042 296.391 468.802 295.354C467.557 294.318 466.938 293.49 466.729 293.078C466.521 292.453 465.693 291.625 464.245 290.177C462.792 288.729 461.76 287.693 461.344 287.068C460.932 286.448 460.516 285.828 459.688 285C459.068 284.38 458.443 283.755 457.823 283.755C457.203 283.552 456.995 283.344 456.995 282.719C456.995 282.099 455.755 280.859 453.474 278.786C451.401 276.714 449.745 275.474 448.714 275.266C447.677 274.849 445.813 273.401 443.328 270.917C440.844 268.432 438.979 266.776 437.943 266.359C436.906 265.948 436.078 265.531 435.661 264.911C435.25 264.292 434.63 264.083 434.214 264.083C433.802 264.083 433.177 263.667 432.557 262.839C431.938 262.01 430.901 261.599 429.865 261.182C428.828 260.771 428.208 260.771 428.208 260.354C428.208 259.943 427.797 259.526 427.172 258.906C426.552 258.281 425.516 257.661 424.276 257.25C423.031 256.833 421.786 256.005 420.339 254.969C418.891 253.932 417.646 253.104 416.198 252.484C414.745 251.865 413.505 251.656 412.885 251.656C412.057 251.656 411.224 251.245 410.604 250.62C409.984 249.792 408.948 249.172 407.708 248.552C407.083 248.344 406.464 247.927 405.635 247.724C405.844 247.307 406.255 246.891 406.464 246.688C407.083 246.063 407.292 245.234 407.292 244.615C407.292 243.995 408.12 242.75 409.568 240.885C411.021 239.021 411.849 237.573 412.26 236.333C412.677 235.089 413.089 234.26 413.917 233.641C414.745 233.016 415.37 232.188 415.573 231.359C415.781 230.531 416.198 229.911 416.609 229.703C417.026 229.292 417.438 228.875 417.646 228.047C417.854 227.219 418.266 226.182 418.474 224.526C418.891 222.87 419.302 221.833 420.13 221.005C420.958 220.177 421.375 219.349 421.786 218.313C422.203 217.484 422.411 216.656 422.411 215.828C422.411 215.208 422.615 214.583 422.823 214.38C423.031 214.172 423.443 213.755 423.651 212.724C423.859 211.896 424.068 211.063 424.068 210.443C424.068 209.823 424.276 209.203 424.479 208.995C424.896 208.786 425.104 207.75 425.307 206.094C425.724 204.438 426.135 202.781 426.964 200.917C427.792 199.26 428.208 198.016 428 197.604C427.792 197.188 428.208 195.948 429.036 194.292C429.865 192.427 430.281 190.974 430.073 189.943C429.865 188.906 430.281 187.458 430.901 185.797C431.729 184.141 431.938 182.073 431.729 179.792C431.521 177.516 431.938 175.651 432.557 173.995C433.177 172.339 433.385 171.302 433.385 170.474C433.385 170.057 433.177 169.854 433.177 169.438C433.802 169.438 434.214 169.646 434.833 169.646C435.87 169.854 436.495 169.646 436.495 169.229C436.698 168.818 436.906 168.609 437.323 168.401C437.734 168.198 438.151 168.198 438.563 168.401C438.979 168.609 439.391 168.609 440.219 168.401C440.844 168.198 441.464 168.198 442.5 168.198C443.328 168.401 443.74 168.198 443.948 167.99C444.156 167.573 445.193 167.573 447.469 167.781C449.745 167.99 450.781 167.99 450.99 167.573C451.198 167.161 452.026 166.953 453.266 166.953C454.719 166.953 455.547 167.161 455.958 167.37C456.375 167.573 457.203 167.573 458.24 167.573C459.271 167.573 459.896 167.37 459.896 166.953C459.896 166.745 460.104 166.536 460.104 166.333C460.724 166.536 461.135 166.745 461.76 166.745C462.792 166.953 463.62 167.161 463.828 166.953C464.036 166.745 464.453 166.745 464.865 166.745C465.281 166.953 465.693 166.745 465.901 166.536C466.109 166.125 466.938 165.917 468.177 165.505C469.63 165.297 471.078 164.052 472.943 161.984C474.807 159.911 475.844 158.464 476.047 157.839C476.255 157.219 476.464 156.182 476.464 154.318C476.464 152.661 476.255 151.63 475.844 151.005C475.427 150.385 475.01 149.969 474.391 149.969C473.771 149.766 473.563 149.557 473.354 148.938C473.151 148.313 472.115 148.109 470.458 148.313C469.63 148.521 468.594 148.521 467.766 148.729C467.766 148.521 467.766 148.109 467.766 147.901C467.766 147.693 467.766 147.281 467.766 147.073C467.141 147.073 466.521 147.073 465.901 147.073C464.656 145.62 463.828 145.828 463.62 146.245ZM394.036 262.427C394.656 262.427 395.281 262.839 396.109 263.875C396.938 264.703 397.766 265.323 398.594 265.531C399.422 265.74 400.042 265.948 400.458 266.359C400.87 266.776 401.495 267.188 402.526 267.396C403.354 267.604 404.599 268.224 405.844 269.052C407.292 269.88 408.12 270.297 408.74 270.297C409.365 270.297 409.776 270.297 409.984 270.708C410.193 271.125 410.396 271.333 410.813 271.125C411.021 271.125 412.052 271.745 413.505 273.193C414.953 274.646 416.406 275.682 417.646 276.094C419.094 276.714 419.719 277.13 419.922 277.542C420.13 277.958 420.339 278.375 420.958 278.995C421.583 279.615 422.615 279.823 424.068 280.031C425.516 280.234 426.344 280.651 426.344 281.479C426.344 282.099 427.172 282.927 428.625 283.755C430.073 284.583 430.901 285.208 430.901 285.62C430.901 286.036 431.521 286.656 432.349 287.484C433.177 288.313 434.005 288.729 434.63 288.729C435.25 288.729 435.87 288.932 436.495 289.557C437.115 290.177 437.734 290.594 438.563 291.005C439.391 291.214 439.807 291.833 440.219 292.661C440.635 293.49 441.047 293.906 441.464 293.906C441.875 293.906 442.292 294.318 442.5 295.146C442.703 295.974 443.328 296.599 444.156 297.219C444.984 297.839 446.021 298.667 447.26 300.12C448.505 301.568 449.333 302.396 449.953 302.396C450.573 302.396 450.781 302.813 450.781 303.432C450.781 304.052 451.609 305.089 452.854 306.125C454.094 307.161 454.719 307.99 454.922 308.401C454.922 308.609 455.13 309.021 455.13 309.229C455.339 309.229 455.547 309.229 455.547 309.021C455.75 308.818 456.375 309.646 457.203 311.302C457.823 312.958 458.443 313.578 459.068 313.578C459.688 313.578 459.896 313.995 460.099 315.031C460.307 315.859 460.724 316.688 461.135 316.891C461.76 317.307 462.172 317.927 462.589 319.172C463 320.411 463.417 320.828 464.036 320.828C464.656 320.828 464.865 321.24 465.073 322.068C465.281 322.901 465.901 323.932 466.729 325.385C467.557 326.625 468.177 327.87 468.385 328.698C468.594 329.734 468.802 330.146 469.214 330.354C469.422 330.563 469.833 330.563 470.042 330.354C470.25 330.146 470.25 330.146 470.25 329.938C470.458 330.563 470.458 330.974 470.661 331.599C470.87 332.63 471.286 333.875 472.323 335.531C473.151 337.188 473.563 338.224 473.563 338.844C473.563 339.469 473.771 340.089 473.979 340.917C474.182 341.745 474.599 342.161 475.01 342.161C475.219 342.161 475.839 344.021 476.672 347.542C477.5 351.063 477.703 353.547 477.911 354.792C477.911 356.036 477.911 356.865 477.5 357.068C477.292 357.276 477.083 357.896 477.083 358.729C477.083 359.557 477.292 360.589 477.5 362.042C477.911 363.49 477.911 364.318 477.5 364.526C477.292 364.734 477.083 365.146 477.292 365.766C477.5 366.391 477.292 366.802 477.083 367.219C476.672 367.427 476.464 368.047 476.464 368.458C476.464 368.875 476.672 369.286 476.875 369.286C477.083 369.286 477.083 369.495 477.292 369.495C477.083 369.703 477.083 369.703 477.083 369.911C476.875 370.12 476.875 370.74 476.875 371.359C476.875 371.979 476.672 372.807 476.047 373.635C475.427 374.469 475.219 375.089 475.839 375.708C476.047 375.917 476.255 376.328 476.464 376.536C476.255 376.536 476.255 376.536 476.047 376.536C475.839 376.536 475.839 376.536 475.635 376.536C475.635 376.745 475.635 376.745 475.635 376.953C475.635 377.365 475.219 377.781 474.391 378.609C473.563 379.438 473.151 380.266 473.151 380.677C473.151 381.302 472.943 381.922 472.734 382.339C472.526 382.542 472.526 382.75 472.318 382.958C472.526 383.167 472.734 383.167 472.734 383.37C472.943 383.578 473.151 383.786 473.151 384.198C473.151 384.406 472.734 384.823 472.115 385.026C471.286 385.234 471.078 385.651 471.078 385.854C471.078 386.063 471.286 386.063 471.286 386.271C471.078 386.271 471.078 386.271 470.87 386.271C470.661 386.271 470.25 386.479 470.042 387.099C469.833 387.719 469.63 388.135 469.214 388.135C468.802 388.135 468.385 388.964 467.766 390.62C467.141 392.276 466.313 393.521 465.281 394.349C464.245 395.177 463.828 396.005 463.828 396.214C463.828 396.417 463.828 396.417 464.036 396.625C463.828 396.625 463.828 396.625 463.62 396.625C463.417 396.625 463 397.042 462.38 397.661C461.76 398.281 461.344 398.698 460.724 398.906C460.099 399.109 459.896 399.318 459.896 399.526C459.896 399.734 459.479 400.146 458.859 400.563C458.031 400.974 457.823 401.391 457.823 401.594C457.823 401.802 457.615 402.427 456.995 403.047C456.375 403.667 455.547 404.083 454.51 404.286C453.474 404.495 452.646 405.115 451.818 405.943C450.99 406.776 450.161 407.188 449.333 407.396C448.505 407.604 447.677 407.807 447.052 408.432C446.432 409.052 444.156 409.672 440.427 410.089C436.495 410.708 433.802 410.708 431.938 410.297C430.073 410.089 428.625 409.672 428 409.26C427.172 408.844 426.135 408.635 425.104 408.635C424.068 408.635 423.031 408.432 421.786 407.807C420.547 407.188 419.302 406.151 417.646 404.495C415.99 402.839 414.333 401.594 412.885 400.974C411.432 400.354 410.396 399.734 409.984 399.318C409.568 398.906 409.365 398.49 409.365 397.661C409.365 396.833 409.156 396.417 408.74 396.005C408.328 395.589 407.911 395.177 407.5 395.177C407.083 395.177 406.672 394.557 405.844 393.724C405.016 392.896 404.391 392.276 403.563 391.865C402.734 391.448 400.667 389.583 397.766 386.271C394.865 382.958 393.208 380.885 393 380.057C392.589 379.229 392.172 378.401 391.344 377.573C390.516 376.745 390.104 376.125 389.896 375.708C389.688 375.297 389.276 374.672 388.24 373.844C387.203 373.016 386.583 372.188 386.583 371.776C386.375 371.151 385.755 370.12 384.302 368.667C383.063 367.219 382.026 366.391 381.406 365.974C380.781 365.766 380.37 365.146 379.953 364.526C379.542 363.906 379.125 363.281 378.089 362.661C377.26 362.042 376.432 361.214 376.229 360.177C376.021 359.141 374.984 358.104 373.328 357.068C371.672 356.036 371.047 355.411 371.047 355C371.047 354.792 370.219 353.755 368.359 352.307C366.495 350.651 365.25 349.615 364.839 348.786C364.422 347.958 363.802 347.542 363.177 347.339C362.557 347.13 361.938 346.51 360.693 345.266C359.453 344.021 358.208 342.99 356.552 342.365C354.896 341.745 353.859 341.125 353.651 340.5C353.24 339.88 352.411 339.26 351.167 338.844C349.719 338.224 348.891 337.813 348.682 336.979C348.474 336.151 347.026 335.12 344.75 333.667C342.469 332.01 340.604 331.182 339.365 330.771C338.328 330.563 337.5 330.146 337.292 329.734C336.88 329.318 336.464 328.906 335.635 328.698C334.807 328.49 333.979 328.281 332.943 328.49C331.906 328.698 331.286 328.49 331.286 328.078C331.078 327.87 330.458 327.453 329.214 327.042C327.974 326.625 327.146 326.214 326.521 325.594C325.901 324.969 324.661 324.557 322.38 323.932C321.141 323.729 320.104 323.313 319.068 323.104C321.552 321.656 324.036 320.208 326.521 318.755C331.495 315.859 335.427 312.958 338.536 310.266C341.432 307.573 343.505 305.917 344.333 305.297C345.37 304.672 346.198 304.469 347.026 304.469C347.854 304.469 349.51 303.432 351.995 301.568C354.479 299.703 356.344 298.047 357.38 296.802C358.417 295.563 359.656 294.734 360.693 294.115C361.938 293.49 365.042 290.797 369.807 286.245C374.568 281.688 377.26 279.203 378.089 279.203C378.714 278.995 379.542 278.786 380.161 278.167C380.781 277.547 381.198 276.922 381.406 276.094C381.609 275.474 382.026 274.854 382.646 274.854C383.266 274.646 383.891 274.438 384.302 273.818C384.719 273.193 385.13 272.573 385.13 272.161C385.13 271.745 385.755 271.125 386.583 270.505C387.411 269.88 388.031 269.052 388.24 268.016C388.448 266.984 388.859 266.359 389.068 265.948C389.276 265.531 390.104 265.323 391.135 265.12C392.172 264.911 393 264.292 393.625 263.464C394.245 262.635 393.417 262.427 394.036 262.427ZM372.5 288.932C371.464 289.349 370.635 289.76 370.219 290.594C369.807 291.214 369.599 291.833 369.599 292.25C369.599 292.661 369.599 293.078 369.807 293.078C370.016 293.281 370.016 293.698 369.807 294.318C369.599 294.943 369.807 296.182 370.635 297.63C371.464 299.083 372.5 300.74 373.948 302.604C375.396 304.469 376.432 305.5 377.057 305.917C377.677 306.125 378.297 306.745 378.714 307.573C379.333 308.193 379.542 308.609 379.745 308.401C379.953 308.193 380.161 308.609 380.578 309.021C380.781 309.646 381.198 309.849 381.818 309.849C382.438 309.849 383.063 310.474 383.682 311.51C384.302 312.542 384.927 312.958 385.339 312.958C385.755 312.958 386.583 313.786 388.24 315.651C389.688 317.516 390.516 318.552 390.932 318.552C391.344 318.552 391.964 319.172 392.797 320.411C393.625 321.656 394.245 322.276 394.453 322.276C394.656 322.276 395.281 322.693 395.901 323.521C396.521 324.349 397.146 324.969 397.766 325.177C398.385 325.385 399.214 326.422 400.25 327.87C401.286 329.318 402.115 330.354 402.526 330.354C402.943 330.563 403.354 330.771 403.354 331.391C403.563 332.01 404.599 332.839 406.255 334.083C407.911 335.531 409.156 336.776 409.776 338.224C410.604 339.672 411.021 340.297 411.432 340.297C411.849 340.089 412.052 340.5 412.26 340.917C412.469 341.536 413.089 342.161 414.333 342.99C415.573 343.818 416.198 344.646 416.609 345.677C417.026 346.714 417.438 347.13 418.266 347.13C418.474 347.13 418.891 346.922 419.094 346.922C419.094 347.339 419.094 347.542 419.094 347.958C419.094 348.786 419.51 349.406 420.547 349.823C421.583 350.234 422.203 351.063 422.823 352.307C423.443 353.547 423.651 354.172 423.859 354.38C424.068 354.583 424.479 354.583 424.688 354.583C424.896 354.583 425.104 354.38 425.307 354.38C425.307 354.583 425.307 354.792 425.307 355C425.307 355.411 425.516 355.828 425.932 356.448C426.344 357.068 426.76 357.276 427.38 357.276C428 357.276 428.208 357.693 428.208 357.896C428.208 358.104 428.625 358.729 429.245 359.557C430.073 360.385 430.484 360.589 430.901 360.589C431.313 360.589 431.521 360.797 431.729 361.214C431.938 361.625 432.349 362.042 432.974 362.453C433.594 362.87 434.214 363.281 434.422 363.906C434.63 364.526 435.458 364.734 436.698 364.734C437.943 364.734 438.771 364.526 438.979 363.906C439.182 363.281 439.599 363.078 439.807 362.87C440.219 362.87 440.427 362.453 440.219 362.042C440.01 361.417 439.599 359.969 438.563 357.484C437.526 355 436.495 352.719 435.25 350.443C434.005 348.37 433.385 346.714 433.385 345.885C433.385 345.057 433.177 344.438 432.557 343.818C431.938 343.193 431.729 342.573 431.729 341.745C431.521 340.917 431.109 340.089 430.073 339.26C429.245 338.432 428.625 337.604 428.417 336.568C428.208 335.74 427.792 334.911 427.38 334.292C426.964 333.667 426.552 333.047 426.344 332.01C426.135 330.974 425.104 329.734 423.443 328.078C421.786 326.422 420.958 325.177 420.755 324.141C420.547 323.104 419.922 322.073 418.682 320.62C417.438 319.38 416.406 318.552 415.781 318.135C415.161 317.927 414.542 317.307 414.333 316.271C414.125 315.443 413.505 314.406 412.677 313.37C411.849 312.339 410.604 311.094 409.156 309.438C407.703 307.781 406.464 306.953 405.844 306.745C405.219 306.536 404.182 305.5 402.943 303.844C401.698 302.188 400.667 301.151 400.042 300.948C399.422 300.74 398.802 300.323 398.385 299.495C397.974 298.667 396.938 297.839 395.073 296.802C393.208 295.771 391.964 294.943 391.135 294.115C390.307 293.281 389.479 292.661 388.448 292.453C387.411 292.25 386.583 291.833 385.958 291.005C385.339 290.177 384.094 289.557 382.438 288.729C380.781 287.901 378.917 287.484 376.849 287.484C375.193 288.313 373.74 288.521 372.5 288.932Z" fill="#FF6900"/>
</g>
</g>
<defs>
<clipPath id="clip0_12_2">
<rect width="500" height="500" fill="currentColor"/>
</clipPath>
</defs>
</svg>
