<svg width="30" height="25" viewBox="0 0 30 25" fill="none" xmlns="http://www.w3.org/2000/svg">
<path d="M0.499834 4.73538C0 6.45758 0 8.83345 0 12.5C0 17.708 0 20.3119 1.43237 22.1374C1.89497 22.7269 2.4549 23.2454 3.09161 23.6737C5.0631 25 7.8754 25 13.5 25H16.5C22.1246 25 24.9369 25 26.9084 23.6737C27.5451 23.2454 28.105 22.7269 28.5676 22.1374C30 20.3119 30 17.708 30 12.5C30 8.82123 30 6.44176 29.4952 4.71818L26.341 7.6387C23.8926 9.90575 21.9739 11.6824 20.2755 12.8822C18.5371 14.1103 16.898 14.8319 14.9998 14.8319C13.1016 14.8319 11.4625 14.1103 9.72412 12.8822C8.02573 11.6824 6.10697 9.90574 3.65856 7.63867L0.725782 4.92313L0.499834 4.73538Z" fill="currentColor"/>
<path d="M1.5 2.77778L1.66327 2.90287L2.27381 3.41021L5.18869 6.10918C7.71118 8.44481 9.52471 10.1209 11.0889 11.2259C12.6272 12.3126 13.7914 12.7485 14.9998 12.7485C16.2082 12.7485 17.3724 12.3126 18.9107 11.2259C20.4749 10.1209 22.2884 8.44482 24.8109 6.10918L28.2728 2.90375L28.4612 2.73026C27.9986 2.14072 27.5451 1.7546 26.9084 1.32627C24.9369 0 22.1246 0 16.5 0H13.5C7.8754 0 5.0631 0 3.09161 1.32627C2.4549 1.7546 1.9626 2.18823 1.5 2.77778Z" fill="currentColor"/>
</svg>
